<?xml version="1.0" standalone="no"?>
<!DOCTYPE svg PUBLIC "-//W3C//DTD SVG 1.1//EN" "http://www.w3.org/Graphics/SVG/1.1/DTD/svg11.dtd" >
<svg xmlns="http://www.w3.org/2000/svg">
<metadata>
This is a custom SVG webfont generated by Font Squirrel.
Foundry     : TLWG
</metadata>
<defs>
<font id="webfontkqxZripC" horiz-adv-x="600" >
<font-face units-per-em="1000" ascent="800" descent="-200" />
<missing-glyph horiz-adv-x="500" />
<glyph unicode=" " />
<glyph unicode="!" d="M338 563v-326q0 -13 -13 -20.5t-26 -7.5q-12 0 -25 7.5t-13 20.5v326v16q0 17 11 28t28 11q16 0 27 -11t11 -28v-16zM293 85h13q23 0 38.5 -14.5t15.5 -35.5t-15.5 -35.5t-38.5 -14.5h-13q-22 0 -37.5 14.5t-15.5 35.5t15.5 35.5t37.5 14.5z" />
<glyph unicode="&#x22;" d="M326 604h128l-34 -253q-4 -36 -30 -36t-30 36zM146 604h128l-34 -253q-4 -36 -30 -36t-30 36z" />
<glyph unicode="#" d="M390 356l-9 -126h80q27 0 27 -20q0 -21 -27 -21h-83l-16 -225q-1 -26 -21 -26q-8 0 -14.5 6.5t-5.5 14.5l16 230h-91l-15 -225q-3 -26 -21 -26q-8 0 -14 6t-6 15v8l16 222h-87q-27 0 -27 21q0 20 27 20h89l9 126h-78q-27 0 -27 21q0 20 27 20h81l16 225q1 25 21 25 q10 0 15.5 -8t3.5 -20l-15 -222h91l16 225q1 25 20 25q22 0 20 -28l-16 -222h89q27 0 27 -20q0 -21 -27 -21h-91zM349 356h-91l-9 -126h91z" />
<glyph unicode="$" d="M280 576v52q0 27 21 27q20 0 20 -27v-52q33 -3 55 -12t49 -30q2 29 21 29q20 0 20 -27v-60q0 -27 -20 -27q-18 0 -21 22q-4 27 -40.5 47t-82.5 20q-52 0 -88.5 -30.5t-36.5 -73.5t33 -61t102 -31q92 -18 126 -41q49 -33 49 -100q0 -59 -45 -99t-121 -48v-119 q0 -27 -20 -27q-21 0 -21 27v119q-35 2 -71 17t-55 37v-16q0 -27 -20 -27q-21 0 -21 27v79q0 27 21 27q17 0 20 -25q3 -32 46.5 -56t98.5 -24q64 0 105.5 30.5t41.5 77.5q0 48 -34 68t-110 34q-82 15 -119 38q-47 32 -47 94q0 54 40.5 94t103.5 47z" />
<glyph unicode="%" d="M361 236q52 0 87.5 -36.5t35.5 -89.5q0 -50 -36 -86t-86 -36q-51 0 -87 36.5t-36 87.5t36 87.5t86 36.5zM361 198q-35 0 -59.5 -25t-24.5 -61q0 -35 25 -60.5t60 -25.5q34 0 59 25t25 60q0 37 -24.5 62t-60.5 25zM237 611q52 0 87.5 -36t35.5 -89q0 -50 -36 -86.5 t-86 -36.5q-51 0 -87 36.5t-36 87.5t36 87.5t86 36.5zM237 573q-34 0 -59 -25.5t-25 -60.5t25 -60.5t60 -25.5q34 0 59 25.5t25 59.5q0 37 -24.5 62t-60.5 25zM495 344l-379 -122q-8 -3 -12 -3q-6 0 -11.5 6t-5.5 13q0 14 18 20l379 122q8 2 12 2q7 0 12 -5.5t5 -13.5 q0 -13 -18 -19z" />
<glyph unicode="&#x26;" d="M393 0l-31 48q-45 -64 -112 -64q-59 0 -102 47t-43 111q0 52 29.5 90.5t81.5 54.5q-34 55 -42 73t-8 40q0 49 36.5 84t86.5 35q33 0 66 -20q19 11 26 11t13 -6.5t6 -14.5q0 -12 -16 -21l-32 -16q-30 26 -63 26q-32 0 -57 -24.5t-25 -55.5t44 -100l111 -177q31 58 46 128 h43q27 0 27 -20q0 -21 -27 -21h-12q-22 -83 -53 -126l27 -41h38q27 0 27 -20q0 -21 -27 -21h-58zM338 86l-105 165q-40 -9 -63.5 -38.5t-23.5 -70.5q0 -47 31 -82t72 -35q55 0 89 61z" />
<glyph unicode="'" d="M236 604h128l-34 -253q-4 -36 -30 -36t-30 36z" />
<glyph unicode="(" d="M438 604q8 0 14 -6t6 -14q0 -4 -3 -11q-100 -177 -100 -333q0 -153 100 -333q3 -8 3 -11q0 -8 -6.5 -14t-14.5 -6q-13 0 -42 47q-101 168 -101 320q0 157 110 327q21 34 34 34z" />
<glyph unicode=")" d="M168 604q14 0 42 -47q101 -166 101 -320q0 -157 -110 -327q-21 -34 -34 -34q-8 0 -14 6t-6 14q0 4 3 11q100 177 100 333q0 154 -100 333q-3 7 -3 11q0 8 6.5 14t14.5 6z" />
<glyph unicode="*" d="M279 438v139q0 27 21 27q20 0 20 -27v-139l133 43q8 3 15 3t13 -6t6 -14q0 -15 -21 -22l-133 -42l81 -112q7 -12 7 -18q0 -8 -6 -14t-14 -6q-10 0 -20 14l-82 112l-81 -112q-11 -14 -21 -14q-8 0 -14 6t-6 15q0 6 8 17l81 112l-133 42q-20 5 -20 21q0 8 6 14t14 6 q3 0 13 -3z" />
<glyph unicode="+" d="M320 261v-202q0 -27 -20 -27q-21 0 -21 27v202h-180q-27 0 -27 21q0 20 27 20h180v201q0 27 21 27q20 0 20 -27v-201h180q28 0 28 -20q0 -21 -28 -21h-180z" />
<glyph unicode="," d="M207 145h133l-145 -265q-13 -25 -31 -25q-12 0 -20.5 8.5t-8.5 20.5q0 3 2 11z" />
<glyph unicode="-" d="M501 258h-402q-27 0 -27 21q0 20 27 20h402q27 0 27 -20q0 -21 -27 -21z" />
<glyph unicode="." d="M295 116h10q29 0 49 -18.5t20 -46.5t-20 -47t-49 -19h-10q-29 0 -49 19t-20 47t20 46.5t49 18.5z" />
<glyph unicode="/" d="M482 633l-327 -696q-9 -18 -22 -18q-8 0 -14 6t-6 13t5 16l327 696q9 18 22 18q8 0 14 -6t6 -13q0 -6 -5 -16z" />
<glyph unicode="0" d="M487 351v-100q0 -118 -52 -192t-135 -74t-135 74t-52 192v100q0 119 52 193t135 74t135 -74t52 -193zM154 346v-89q0 -104 48 -178q34 -53 98 -53t98 53q48 74 48 178v89q0 104 -48 178q-34 53 -98 53t-98 -53q-48 -74 -48 -178z" />
<glyph unicode="1" d="M321 612v-571h139q27 0 27 -20q0 -21 -27 -21h-319q-28 0 -28 21q0 20 28 20h139v516l-132 -42q-12 -3 -14 -3q-7 0 -13 6.5t-6 13.5q0 15 21 22z" />
<glyph unicode="2" d="M123 41h314v36q0 27 21 27q20 0 20 -27v-77h-394v60l236 222q70 69 91.5 100t21.5 65q0 52 -43 91t-100 39q-51 0 -92.5 -30t-53.5 -75q-6 -20 -21 -20q-7 0 -13 5.5t-6 12.5q0 32 32 72q59 76 154 76q73 0 128.5 -52t55.5 -120q0 -44 -25.5 -81t-118.5 -128 q-128 -126 -207 -193v-3z" />
<glyph unicode="3" d="M374 328q59 -24 92 -66.5t33 -93.5q0 -76 -61.5 -129.5t-147.5 -53.5q-72 0 -148 41q-46 24 -46 43q0 7 6 13t13 6t17 -7q72 -55 159 -55q68 0 117.5 42t49.5 100q0 59 -53 101.5t-126 42.5q-27 0 -27 21q0 20 27 20q64 0 87 11q32 14 51 41t19 58q0 49 -39 81.5 t-97 32.5q-88 0 -134 -54q-12 -14 -21 -14q-8 0 -14 5.5t-6 13.5q0 17 35 44q60 46 141 46q75 0 125.5 -44.5t50.5 -109.5q0 -43 -26.5 -79t-71.5 -55q-1 0 -5 -2z" />
<glyph unicode="4" d="M376 169h-271v47l228 388h84v-394h34q27 0 27 -21q0 -20 -27 -20h-34v-128h34q27 0 27 -20q0 -21 -27 -21h-151q-27 0 -27 21q0 20 27 20h76v128zM376 210v353h-24l-208 -353h232z" />
<glyph unicode="5" d="M190 563v-198q73 30 132 30q77 0 127 -55t50 -139q0 -95 -57.5 -155.5t-146.5 -60.5q-79 0 -153 49q-46 30 -46 48q0 8 6 14t14 6t17 -9q73 -67 160 -67q73 0 119 49t46 128q0 67 -39.5 109t-102.5 42t-126 -33q-16 -8 -22 -8q-19 0 -19 22v269h282q28 0 28 -20 q0 -21 -28 -21h-241z" />
<glyph unicode="6" d="M177 242q61 122 166 122q68 0 117.5 -55t49.5 -131q0 -81 -50 -137t-123 -56q-89 0 -145 83t-56 214q0 172 109 265q82 71 183 71q32 0 55.5 -10.5t23.5 -24.5q0 -8 -5.5 -14t-13.5 -6q-7 0 -17 6q-16 8 -47 8q-57 0 -112 -33t-92 -89q-45 -71 -45 -170q0 -5 2 -43z M183 188q21 -81 58 -121.5t97 -40.5q56 0 93.5 44t37.5 108q0 59 -37.5 102t-89.5 43q-58 0 -109 -57q-18 -19 -50 -78z" />
<glyph unicode="7" d="M437 545v18h-291v-35q0 -28 -20 -28q-21 0 -21 28v76h373v-65l-163 -519q-7 -21 -20 -21q-8 0 -14 6t-6 14q0 5 2 13z" />
<glyph unicode="8" d="M375 313q112 -51 112 -152q0 -73 -55 -124.5t-132 -51.5t-132 51.5t-55 124.5q0 100 112 152q-102 52 -102 140q0 67 52.5 116t124.5 49t124.5 -49t52.5 -116q0 -88 -102 -140zM300 577q-57 0 -96.5 -36.5t-39.5 -89.5q0 -49 39.5 -83.5t96.5 -34.5q56 0 96 34t40 83 q0 53 -39.5 90t-96.5 37zM300 293q-61 0 -103.5 -38t-42.5 -94t42.5 -95.5t103.5 -39.5q60 0 103 39.5t43 94.5q0 57 -42 95t-104 38z" />
<glyph unicode="9" d="M469 361q-61 -122 -166 -122q-68 0 -117.5 55t-49.5 131q0 81 50 137t123 56q89 0 145 -83t56 -214q0 -172 -109 -265q-82 -71 -183 -71q-32 0 -55.5 10.5t-23.5 24.5q0 8 5.5 14t13.5 6q7 0 17 -6q16 -8 47 -8q57 0 112 33t92 89q45 71 45 170q0 5 -2 43zM463 415 q-21 81 -58 121.5t-97 40.5q-56 0 -93.5 -44t-37.5 -108q0 -59 37.5 -102t89.5 -43q58 0 109 57q18 19 50 78z" />
<glyph unicode=":" d="M295 116h10q29 0 49 -18.5t20 -46.5t-20 -47t-49 -19h-10q-29 0 -49 19t-20 47t20 46.5t49 18.5zM295 417h10q29 0 49 -19t20 -47t-20 -47t-49 -19h-10q-29 0 -49 19t-20 47t20 47t49 19z" />
<glyph unicode=";" d="M211 145h133l-145 -265q-13 -25 -31 -25q-12 0 -20.5 8.5t-8.5 20.5q0 3 2 11zM271 417h10q29 0 49 -19t20 -47t-20 -47t-49 -19h-10q-29 0 -49 19t-20 47t20 47t49 19z" />
<glyph unicode="&#x3c;" d="M72 281l418 232q8 5 12 5q7 0 13.5 -7t6.5 -15q0 -11 -13 -18l-355 -197l355 -197q13 -7 13 -17q0 -5 -3 -10l-2 -3q-5 -10 -15 -10q-5 0 -13 5z" />
<glyph unicode="=" d="M522 334h-444q-27 0 -27 21q0 20 27 20h444q27 0 27 -20q0 -21 -27 -21zM522 190h-444q-27 0 -27 21q0 20 27 20h444q27 0 27 -20q0 -21 -27 -21z" />
<glyph unicode="&#x3e;" d="M528 281l-418 -232q-8 -5 -12 -5q-8 0 -14 7t-6 16q0 10 13 17l355 197l-355 197q-13 7 -13 18q0 4 3 9l2 3q5 10 15 10q5 0 13 -5z" />
<glyph unicode="?" d="M322 247v-41q0 -27 -20 -27q-21 0 -21 27v68q88 37 126.5 71.5t38.5 77.5q0 50 -40 81.5t-102 31.5q-61 0 -129 -34v-41q0 -27 -20 -27q-21 0 -21 27v68l16 7q10 4 13 5q81 36 146 36q80 0 129 -42.5t49 -111.5q0 -56 -35.5 -94t-129.5 -82zM287 85h27q26 0 41.5 -14 t15.5 -36t-16 -36t-41 -14h-27q-26 0 -41.5 14t-15.5 36t15.5 36t41.5 14z" />
<glyph unicode="@" d="M418 145v5q-30 -3 -40 -3q-58 0 -97 36t-39 89q0 63 50 104t126 40v47q0 52 -33 86t-84 34q-68 0 -111.5 -63t-43.5 -162v-160q0 -92 47 -162q39 -57 112 -57q70 0 105 30q12 11 19 11q8 0 14 -5.5t6 -13.5q0 -23 -47.5 -43t-102.5 -20q-87 0 -140 75q-54 78 -54 185v163 q0 114 55 188.5t140 74.5q68 0 113.5 -46t45.5 -115v-277q19 -3 19 -20q0 -21 -27 -21h-33zM418 192v184q-59 0 -97 -29t-38 -74q0 -38 27.5 -61.5t70.5 -23.5q21 0 37 4z" />
<glyph unicode="A" d="M428 188h-266l-54 -147h79q27 0 27 -20q0 -21 -27 -21h-151q-27 0 -27 21q0 20 27 20h31l179 481h-120q-27 0 -27 21q0 20 27 20h204l197 -522h37q27 0 27 -20q0 -21 -27 -21h-156q-27 0 -27 21q0 20 27 20h76zM413 229l-112 293h-15l-108 -293h235z" />
<glyph unicode="B" d="M124 41v481h-54q-27 0 -27 21q0 20 27 20h258q73 0 122 -41.5t49 -103.5q0 -74 -85 -120q127 -45 127 -145q0 -63 -48.5 -108t-116.5 -45h-306q-27 0 -27 21q0 20 27 20h54zM165 313h147q64 0 105 30t41 76q0 44 -37 73.5t-92 29.5h-164v-209zM165 41h208q53 0 90 32.5 t37 79.5q0 58 -59 93q-44 26 -127 26h-149v-231z" />
<glyph unicode="C" d="M478 507v29q0 27 21 27q20 0 20 -27v-112q0 -27 -21 -27q-18 0 -20 24q-3 46 -54.5 80t-118.5 34q-83 0 -142 -63.5t-59 -152.5v-71q0 -90 65 -156.5t153 -66.5q52 0 93 21t81 69q9 10 18 10q20 0 20 -19q0 -16 -38 -51q-76 -71 -174 -71q-102 0 -180.5 78.5t-78.5 179.5 v83q0 46 19.5 94.5t51.5 82.5q69 74 171 74q101 0 173 -69z" />
<glyph unicode="D" d="M104 41v481h-34q-27 0 -27 21q0 20 27 20h220q97 0 163.5 -73.5t66.5 -179.5v-56q0 -107 -66.5 -180.5t-163.5 -73.5h-220q-27 0 -27 21q0 20 27 20h34zM145 41h150q72 0 128 62t56 142v73q0 87 -65 154q-50 50 -126 50h-143v-481z" />
<glyph unicode="E" d="M165 272v-231h314v119q0 27 21 27q20 0 20 -27v-160h-450q-27 0 -27 21q0 20 27 20h54v481h-54q-27 0 -27 21q0 20 27 20h429v-139q0 -27 -21 -27q-20 0 -20 27v98h-293v-209h145v45q0 27 21 27q20 0 20 -27v-131q0 -27 -20 -27q-21 0 -21 27v45h-145z" />
<glyph unicode="F" d="M165 272v-231h138q28 0 28 -20q0 -21 -28 -21h-233q-27 0 -27 21q0 20 27 20h54v481h-54q-27 0 -27 21q0 20 27 20h450v-139q0 -27 -21 -27q-20 0 -20 27v98h-314v-209h145v45q0 27 20 27q21 0 21 -27v-131q0 -27 -21 -27q-20 0 -20 27v45h-145z" />
<glyph unicode="G" d="M520 209v-173q-90 -52 -187 -52q-123 0 -196.5 71t-73.5 189v74q0 53 22 105t59 88q70 65 169 65t166 -54v14q0 27 21 27q20 0 20 -27v-91q0 -27 -20 -27q-19 0 -20 25q-3 38 -51 65t-114 27q-84 0 -139 -54q-33 -31 -52.5 -75.5t-19.5 -88.5v-73q0 -102 62 -160.5 t170 -58.5q70 0 143 34v150h-139q-27 0 -27 21q0 20 27 20h194q28 0 28 -20q0 -21 -28 -21h-14z" />
<glyph unicode="H" d="M437 272h-270v-231h54q27 0 27 -20q0 -21 -27 -21h-140q-28 0 -28 21q0 20 28 20h45v481h-25q-27 0 -27 21q0 20 27 20h120q27 0 27 -20q0 -21 -27 -21h-54v-209h270v209h-54q-27 0 -27 21q0 20 27 20h120q27 0 27 -20q0 -21 -27 -21h-25v-481h46q27 0 27 -20 q0 -21 -27 -21h-141q-27 0 -27 21q0 20 27 20h54v231z" />
<glyph unicode="I" d="M320 522v-481h139q28 0 28 -20q0 -21 -28 -21h-319q-27 0 -27 21q0 20 27 20h139v481h-139q-27 0 -27 21q0 20 27 20h319q28 0 28 -20q0 -21 -28 -21h-139z" />
<glyph unicode="J" d="M460 522v-357q0 -74 -55.5 -127.5t-132.5 -53.5q-48 0 -91 20.5t-97 69.5v149q0 27 21 27q20 0 20 -27v-130q75 -68 148 -68q61 0 103.5 41t42.5 99v357h-159q-27 0 -27 21q0 20 27 20h296q27 0 27 -20q0 -21 -27 -21h-96z" />
<glyph unicode="K" d="M165 221v-180h75q27 0 27 -20q0 -21 -27 -21h-170q-27 0 -27 21q0 20 27 20h54v481h-54q-27 0 -27 21q0 20 27 20h170q27 0 27 -20q0 -21 -27 -21h-75v-249l280 249h-45q-28 0 -28 21q0 20 28 20h118q28 0 28 -20q0 -21 -28 -21h-16l-222 -198q73 -30 113 -84.5 t96 -198.5h56q27 0 27 -20q0 -21 -27 -21h-87q-55 152 -98 211.5t-114 82.5z" />
<glyph unicode="L" d="M227 522v-481h273v160q0 27 21 27q20 0 20 -27v-201h-451q-27 0 -27 21q0 20 27 20h96v481h-96q-27 0 -27 21q0 20 27 20h233q27 0 27 -20q0 -21 -27 -21h-96z" />
<glyph unicode="M" d="M326 169h-46l-159 353h-8v-481h74q28 0 28 -20q0 -21 -28 -21h-149q-27 0 -27 21q0 20 27 20h34v481h-25q-27 0 -27 21q0 20 27 20h99l157 -348l154 348h100q27 0 27 -20q0 -21 -27 -21h-25v-481h34q27 0 27 -20q0 -21 -27 -21h-149q-27 0 -27 21q0 20 27 20h74v481h-8z " />
<glyph unicode="N" d="M501 0h-52l-305 504v-463h75q27 0 27 -20q0 -21 -27 -21h-150q-27 0 -27 21q0 20 27 20h34v481h-54q-27 0 -27 21q0 20 27 20h106l305 -504v463h-74q-28 0 -28 21q0 20 28 20h149q27 0 27 -20q0 -21 -27 -21h-34v-522z" />
<glyph unicode="O" d="M300 576q106 0 177.5 -86.5t71.5 -213.5q0 -121 -73 -206.5t-176 -85.5q-104 0 -176.5 86t-72.5 210t72.5 210t176.5 86zM300 535q-86 0 -147 -75t-61 -180t61 -180t147 -75q85 0 146.5 74.5t61.5 177.5q0 108 -60.5 183t-147.5 75z" />
<glyph unicode="P" d="M165 231v-190h138q28 0 28 -20q0 -21 -28 -21h-233q-27 0 -27 21q0 20 27 20h54v481h-54q-27 0 -27 21q0 20 27 20h240q80 0 134.5 -47.5t54.5 -117.5t-59 -118.5t-144 -48.5h-131zM165 272h134q65 0 112 37t47 89q0 51 -42.5 87.5t-101.5 36.5h-149v-250z" />
<glyph unicode="Q" d="M305 -16l-54 -40q40 8 67 8q41 0 82 -15q29 -11 45 -11q27 0 69 27q5 4 12 4q8 0 14 -6t6 -15q0 -15 -36.5 -33t-67.5 -18q-18 0 -56 13q-35 13 -68 13q-58 0 -140 -23q-8 -2 -10 -2q-8 0 -14 6t-6 15q0 10 11 18l90 65q-85 19 -141.5 101.5t-56.5 188.5q0 124 72.5 210 t176.5 86t176.5 -86t72.5 -210q0 -123 -70 -208t-174 -88zM300 535q-86 0 -147 -75t-61 -180t61 -180t147 -75q85 0 146.5 74.5t61.5 177.5q0 108 -60.5 183t-147.5 75z" />
<glyph unicode="R" d="M165 251v-210h75q27 0 27 -20q0 -21 -27 -21h-170q-27 0 -27 21q0 20 27 20h54v481h-54q-27 0 -27 21q0 20 27 20h248q73 0 126.5 -46.5t53.5 -109.5q0 -97 -139 -145q47 -32 79 -73t93 -148h31q27 0 27 -20q0 -21 -27 -21h-57q-66 122 -108.5 173.5t-99.5 77.5h-132z M165 292h114q74 0 126 34t52 82q0 45 -42.5 79.5t-96.5 34.5h-153v-230z" />
<glyph unicode="S" d="M445 517v19q0 27 21 27q20 0 20 -27v-103q0 -27 -20 -27t-21 24q-3 45 -44 75t-99 30q-62 0 -102.5 -33t-40.5 -82q0 -52 38.5 -75.5t113.5 -35.5q98 -17 135 -40q62 -38 62 -118q0 -73 -58 -120t-148 -47q-106 0 -169 72v-29q0 -27 -21 -27q-20 0 -20 27v112q0 27 21 27 q19 0 20 -24q2 -49 51 -83t117 -34q70 0 116.5 36.5t46.5 91.5q0 57 -45 84q-29 19 -116 34q-96 16 -136 46q-52 36 -52 104q0 66 52.5 110.5t131.5 44.5q86 0 146 -59z" />
<glyph unicode="T" d="M321 41h105q27 0 27 -20q0 -21 -27 -21h-251q-27 0 -27 21q0 20 27 20h105v481h-167v-73q0 -27 -21 -27q-20 0 -20 27v114h456v-114q0 -27 -20 -27q-9 0 -15 7.5t-6 19.5v73h-166v-481z" />
<glyph unicode="U" d="M499 522v-337q0 -85 -57.5 -143t-141.5 -58q-85 0 -142 57.5t-57 143.5v337h-34q-27 0 -27 21q0 20 27 20h149q27 0 27 -20q0 -21 -27 -21h-74v-337q0 -68 45.5 -114t112.5 -46q66 0 112 46.5t46 113.5v337h-74q-27 0 -27 21q0 20 27 20h149q27 0 27 -20q0 -21 -27 -21 h-34z" />
<glyph unicode="V" d="M267 0l-200 522h-31q-27 0 -27 21q0 20 27 20h151q27 0 27 -20q0 -21 -27 -21h-77l186 -481h3l193 481h-78q-27 0 -27 21q0 20 27 20h150q27 0 27 -20q0 -21 -27 -21h-31l-209 -522h-57z" />
<glyph unicode="W" d="M122 0l-60 522h-15q-27 0 -27 21q0 20 27 20h149q28 0 28 -20q0 -21 -28 -21h-93l56 -476l112 392h62l109 -392l57 476h-96q-27 0 -27 21q0 20 27 20h150q27 0 27 -20q0 -21 -27 -21h-15l-62 -522h-64l-112 400l-115 -400h-63z" />
<glyph unicode="X" d="M325 288l191 -247h17q27 0 27 -20q0 -21 -27 -21h-132q-27 0 -27 21q0 20 27 20h62l-165 214l-164 -214h64q27 0 27 -20q0 -21 -27 -21h-131q-27 0 -27 21q0 20 27 20h17l188 247l-179 234h-15q-27 0 -27 21q0 20 27 20h110q27 0 27 -20q0 -21 -27 -21h-43l155 -201 l153 201h-45q-27 0 -27 21q0 20 27 20h111q27 0 27 -20q0 -21 -27 -21h-15z" />
<glyph unicode="Y" d="M322 254v-213h105q27 0 27 -20q0 -21 -27 -21h-251q-27 0 -27 21q0 20 27 20h105v213l-179 268h-24q-27 0 -27 21q0 20 27 20h111q27 0 27 -20q0 -21 -27 -21h-38l152 -227l149 227h-40q-28 0 -28 21q0 20 28 20h110q27 0 27 -20q0 -21 -27 -21h-24z" />
<glyph unicode="Z" d="M497 0h-394v59l328 460v3h-269v-118q0 -28 -20 -28q-21 0 -21 28v159h349v-58l-328 -460v-4h314v141q0 27 20 27q21 0 21 -27v-182z" />
<glyph unicode="[" d="M321 563v-646h97q27 0 27 -20q0 -21 -27 -21h-138v728h138q27 0 27 -20q0 -21 -27 -21h-97z" />
<glyph unicode="\" d="M155 650l327 -696q5 -9 5 -16t-6 -13t-14 -6q-13 0 -22 18l-327 696q-5 10 -5 16q0 7 6.5 13t14.5 6q12 0 21 -18z" />
<glyph unicode="]" d="M279 -83v646h-97q-27 0 -27 20q0 21 27 21h138v-728h-138q-27 0 -27 20q0 21 27 21h97z" />
<glyph unicode="^" d="M300 615l178 -223q9 -10 9 -18t-6 -14t-14 -6q-11 0 -20 13l-147 185l-147 -185q-9 -13 -20 -13q-8 0 -14 6t-6 14t9 18z" />
<glyph unicode="_" d="M612 -75v-50h-624v50h624z" />
<glyph unicode="`" d="M194 630l114 -100l7 -8q5 -5 5 -11q0 -9 -6 -15t-15 -6q-7 0 -18 9l-114 100q-12 11 -12 20q0 8 6 14t14 6q7 0 19 -9z" />
<glyph unicode="a" d="M419 0v67q-89 -83 -191 -83q-70 0 -113 35.5t-43 92.5q0 65 58.5 105.5t152.5 40.5q59 0 136 -21v71q0 37 -34 59.5t-89 22.5q-45 0 -142 -30q-8 -2 -10 -2q-8 0 -13.5 6t-5.5 14q0 15 17 21q93 32 157 32q70 0 115.5 -35t45.5 -88v-267h54q27 0 27 -20q0 -21 -27 -21 h-95zM419 112v90q-60 15 -128 15q-79 0 -128.5 -29.5t-49.5 -76.5q0 -39 31 -62.5t83 -23.5q53 0 97.5 20t94.5 67z" />
<glyph unicode="b" d="M144 604v-276q73 103 180 103q91 0 154 -64t63 -157q0 -94 -63.5 -160t-153.5 -66q-110 0 -180 104v-88h-95q-27 0 -27 21q0 20 27 20h54v522h-54q-27 0 -27 21q0 20 27 20h95zM322 390q-74 0 -126 -53t-52 -129t52 -129.5t126 -53.5q73 0 125.5 53t52.5 127 q0 78 -51.5 131.5t-126.5 53.5z" />
<glyph unicode="c" d="M470 376v13q0 28 21 28q20 0 20 -28v-91q0 -27 -20 -27q-18 0 -21 24q-3 40 -49.5 67.5t-109.5 27.5q-83 0 -134.5 -51.5t-51.5 -133.5q0 -79 52 -129.5t134 -50.5q109 0 187 72q10 10 18 10t13.5 -5.5t5.5 -13.5q0 -20 -43 -49q-80 -55 -183 -55q-98 0 -161.5 62 t-63.5 158q0 99 65 163t165 64q93 0 156 -55z" />
<glyph unicode="d" d="M502 604v-563h54q27 0 27 -20q0 -21 -27 -21h-95v89q-71 -105 -182 -105q-89 0 -152.5 66t-63.5 158t63.5 157.5t152.5 65.5q110 0 182 -104v236h-54q-27 0 -27 21q0 20 27 20h95zM282 390q-74 0 -126 -53t-52 -129q0 -77 52 -130t127 -53q74 0 126 53t52 128 q0 78 -51.5 131t-127.5 53z" />
<glyph unicode="e" d="M520 199h-416q11 -79 66 -126.5t136 -47.5q47 0 96 15t79 39q10 7 16 7q8 0 13.5 -6t5.5 -14q0 -26 -71.5 -54t-139.5 -28q-101 0 -171.5 68t-70.5 165q0 91 66 152.5t162 61.5q72 0 128.5 -36t83.5 -98q17 -40 17 -98zM104 240h374q-12 68 -63 109t-124 41t-123 -40.5 t-64 -109.5z" />
<glyph unicode="f" d="M271 376v-335h178q27 0 27 -20q0 -21 -27 -21h-317q-27 0 -27 21q0 20 27 20h98v335h-88q-27 0 -27 21q0 20 27 20h88v61q0 55 43.5 90.5t110.5 35.5q70 0 139 -13q18 -5 18 -20q0 -20 -21 -20q-2 0 -50 6q-54 6 -88 6q-49 0 -80 -23.5t-31 -61.5v-61h189q27 0 27 -20 q0 -21 -27 -21h-189z" />
<glyph unicode="g" d="M440 334v83h95q27 0 27 -20q0 -21 -27 -21h-54v-404q0 -58 -43 -104q-51 -54 -122 -54h-114q-27 0 -27 21q0 20 27 20h116q51 0 86.5 36t35.5 87v129q-66 -97 -171 -97q-85 0 -145.5 62t-60.5 149t60.5 148.5t145.5 61.5q106 0 171 -97zM272 390q-70 0 -119 -49t-49 -120 t49 -120.5t119 -49.5t119 49t49 119q0 73 -48.5 122t-119.5 49z" />
<glyph unicode="h" d="M165 604v-257q38 46 73 65t81 19q70 0 114.5 -39.5t44.5 -100.5v-250h45q28 0 28 -20q0 -21 -28 -21h-131q-27 0 -27 21q0 20 27 20h45v247q0 46 -38 76q-31 26 -85 26q-42 0 -69.5 -16.5t-68.5 -64.5l-11 -13v-255h45q28 0 28 -20q0 -21 -28 -21h-132q-27 0 -27 21 q0 20 27 20h46v522h-54q-27 0 -27 21q0 20 27 20h95z" />
<glyph unicode="i" d="M320 417v-376h160q28 0 28 -20q0 -21 -28 -21h-361q-27 0 -27 21q0 20 27 20h160v335h-118q-27 0 -27 21q0 20 27 20h159zM318 624v-104h-59v104h59z" />
<glyph unicode="j" d="M417 376h-241q-27 0 -27 21q0 20 27 20h282v-445q0 -70 -43.5 -114t-111.5 -44h-129q-27 0 -27 21q0 20 27 20h128q50 0 82.5 33t32.5 84v404zM414 624v-104h-59v104h59z" />
<glyph unicode="k" d="M185 180v-180h-95q-27 0 -27 21q0 20 27 20h54v522h-54q-27 0 -27 21q0 20 27 20h95v-375l173 147h-22q-27 0 -27 21q0 20 27 20h130q27 0 27 -20q0 -21 -27 -21h-47l-157 -131l207 -204h45q27 0 27 -20q0 -21 -27 -21h-131q-27 0 -27 21q0 20 27 20h28l-180 178z" />
<glyph unicode="l" d="M320 604v-563h160q28 0 28 -20q0 -21 -28 -21h-361q-27 0 -27 21q0 20 27 20h160v522h-117q-27 0 -27 21q0 20 27 20h158z" />
<glyph unicode="m" d="M112 417v-52q25 36 49 51t56 15q64 0 97 -71q55 71 113 71q43 0 74 -32t31 -76v-282h34q27 0 27 -20q0 -21 -27 -21h-74v319q0 28 -20 49.5t-46 21.5q-50 0 -104 -82v-267h34q27 0 27 -20q0 -21 -27 -21h-74v316q0 29 -19.5 51.5t-45.5 22.5q-50 0 -105 -82v-267h34 q27 0 27 -20q0 -21 -27 -21h-109q-26 0 -26 21q0 20 27 20h34v335h-34q-27 0 -27 21q0 20 27 20h74z" />
<glyph unicode="n" d="M167 417v-69q43 48 76 65.5t80 17.5q67 0 112 -39t45 -97v-254h34q27 0 27 -20q0 -21 -27 -21h-109q-27 0 -27 21q0 20 27 20h34v247q0 44 -38 76q-31 26 -82 26q-55 0 -95 -33q-18 -13 -57 -63v-253h45q27 0 27 -20q0 -21 -27 -21h-131q-28 0 -28 21q0 20 28 20h45v335 h-34q-27 0 -27 21q0 20 27 20h75z" />
<glyph unicode="o" d="M300 431q96 0 162 -65.5t66 -160.5q0 -92 -67 -156.5t-161 -64.5q-95 0 -161.5 65t-66.5 159q0 92 66.5 157.5t161.5 65.5zM300 390q-78 0 -132.5 -53t-54.5 -129t54.5 -129.5t132.5 -53.5q77 0 132 53t55 127q0 79 -54 132t-133 53z" />
<glyph unicode="p" d="M144 417v-82q40 52 81 74t98 22q93 0 155.5 -60.5t62.5 -149.5t-63 -150t-155 -61q-112 0 -179 96v-251h98q27 0 27 -20q0 -21 -27 -21h-193q-27 0 -27 21q0 20 27 20h54v521h-54q-27 0 -27 21q0 20 27 20h95zM322 390q-74 0 -126 -49.5t-52 -119.5q0 -71 52 -120.5 t126 -49.5t126 49t52 119q0 73 -51 122t-127 49z" />
<glyph unicode="q" d="M461 335v82h95q27 0 27 -20q0 -21 -27 -21h-54v-521h54q27 0 27 -20q0 -21 -27 -21h-193q-27 0 -27 21q0 20 27 20h98v251q-67 -96 -180 -96q-92 0 -155 61t-63 150t63 149.5t156 60.5q111 0 179 -96zM282 390q-75 0 -126.5 -49t-51.5 -120t51.5 -120.5t126.5 -49.5 q74 0 126.5 49t52.5 119q0 73 -51.5 122t-127.5 49z" />
<glyph unicode="r" d="M248 417v-102q69 63 112 87.5t81 24.5q40 0 77 -31q23 -19 23 -31q0 -9 -6 -15t-15 -6q-8 0 -16 8q-35 34 -66 34q-34 0 -70.5 -24t-119.5 -100v-221h179q27 0 27 -21q0 -20 -27 -20h-316q-27 0 -27 21q0 20 27 20h96v335h-75q-27 0 -27 21q0 20 27 20h116z" />
<glyph unicode="s" d="M432 385v4q0 28 21 28q20 0 20 -28v-69q0 -27 -20 -27q-18 0 -21 23q-4 34 -40 54t-93 20q-56 0 -93 -21.5t-37 -53.5q0 -27 32 -45q17 -11 34 -14.5t82 -10.5q86 -10 130 -39q50 -34 50 -90q0 -57 -55.5 -94.5t-140.5 -37.5q-96 0 -157 54v-11q0 -27 -20 -27 q-21 0 -21 27v83q0 27 21 27q20 0 20 -22v-7q0 -34 45 -58.5t109 -24.5q66 0 110 26t44 66q0 39 -44 63q-35 19 -108 27q-94 10 -130 32q-46 30 -46 79t48.5 81t122.5 32q85 0 137 -46z" />
<glyph unicode="t" d="M186 417h220q27 0 27 -20q0 -21 -27 -21h-220v-267q0 -38 30 -61t82 -23q42 0 89.5 11.5t76.5 28.5q10 6 16 6q7 0 13 -6t6 -14q0 -22 -67.5 -44.5t-131.5 -22.5q-71 0 -113 33.5t-42 89.5v269h-74q-28 0 -28 21q0 20 28 20h74v119q0 27 21 27q20 0 20 -27v-119z" />
<glyph unicode="u" d="M439 0v66q-84 -82 -182 -82q-60 0 -96.5 36t-36.5 95v261h-54q-27 0 -27 21q0 20 27 20h95v-302q0 -38 26.5 -64t64.5 -26q100 0 183 90v261h-74q-28 0 -28 21q0 20 28 20h115v-376h34q27 0 27 -20q0 -21 -27 -21h-75z" />
<glyph unicode="v" d="M336 0h-70l-168 376h-41q-27 0 -27 21q0 20 27 20h151q28 0 28 -20q0 -21 -28 -21h-65l150 -335h19l147 335h-68q-27 0 -27 21q0 20 27 20h152q27 0 27 -20q0 -21 -27 -21h-41z" />
<glyph unicode="w" d="M441 0h-50l-91 259l-89 -259h-51l-84 376h-19q-27 0 -27 21q0 20 27 20h111q27 0 27 -20q0 -21 -27 -21h-53l72 -320l86 255h51l89 -255l69 320h-50q-27 0 -27 21q0 20 27 20h111q27 0 27 -20q0 -21 -27 -21h-19z" />
<glyph unicode="x" d="M329 219l184 -178h9q27 0 27 -20q0 -21 -27 -21h-132q-27 0 -27 21q0 20 27 20h65l-155 149l-157 -149h68q27 0 27 -20q0 -21 -27 -21h-133q-27 0 -27 21q0 20 27 20h9l184 178l-163 157h-7q-27 0 -27 21q0 20 27 20h111q27 0 27 -20q0 -21 -27 -21h-46l134 -130l137 130 h-48q-27 0 -27 21q0 20 27 20h110q27 0 27 -20q0 -21 -27 -21h-7z" />
<glyph unicode="y" d="M282 0l-188 376h-16q-27 0 -27 21q0 20 27 20h115q27 0 27 -20q0 -21 -27 -21h-52l164 -331l161 331h-54q-27 0 -27 21q0 20 27 20h110q27 0 27 -20q0 -21 -27 -21h-14l-256 -521h65q27 0 27 -20q0 -21 -27 -21h-233q-27 0 -27 21q0 20 27 20h127z" />
<glyph unicode="z" d="M474 417v-36l-303 -340h277v56q0 27 21 27q20 0 20 -27v-97h-374v36l301 340h-251v-55q0 -27 -20 -27q-21 0 -21 27v96h350z" />
<glyph unicode="{" d="M322 499v-173q0 -31 -9.5 -49.5t-34.5 -36.5q25 -18 34.5 -36.5t9.5 -49.5v-173q0 -26 15.5 -44t39.5 -20q26 -3 26 -21q0 -20 -24 -20q-41 0 -69.5 30.5t-28.5 74.5v173q0 27 -16.5 45t-43.5 20q-24 1 -24 21t24 21q27 2 43.5 19.5t16.5 45.5v173q0 44 28.5 74.5 t69.5 30.5q24 0 24 -20q0 -18 -26 -21q-24 -2 -39.5 -20t-15.5 -44z" />
<glyph unicode="|" d="M320 577v-674q0 -27 -20 -27t-20 27v674q0 27 20 27t20 -27z" />
<glyph unicode="}" d="M278 -19v173q0 31 9.5 49.5t34.5 36.5q-25 18 -34.5 36.5t-9.5 49.5v173q0 26 -15.5 44t-39.5 20q-26 3 -26 21q0 20 24 20q41 0 69.5 -30.5t28.5 -74.5v-173q0 -27 16.5 -45t43.5 -20q24 -1 24 -21t-24 -21q-27 -2 -43.5 -19.5t-16.5 -45.5v-173q0 -44 -28.5 -74.5 t-69.5 -30.5q-24 0 -24 20q0 18 26 21q24 2 39.5 20t15.5 44z" />
<glyph unicode="~" d="M488 330q8 0 14 -5.5t6 -13.5q0 -11 -25 -40q-49 -59 -94 -59q-24 0 -46.5 12.5t-69.5 52.5q-37 30 -61 30q-19 0 -33.5 -11.5t-47.5 -53.5q-9 -12 -20 -12q-7 0 -13 6t-6 13q0 13 28 45q47 54 92 54q24 0 42 -9t59 -42q54 -44 73 -44q36 0 73 52q17 25 29 25z" />
<glyph unicode="&#xa0;" />
<glyph unicode="&#xa1;" d="M262 -161l18 326q1 28 21 28q19 0 20 -28l18 -326q1 -7 1 -16q0 -17 -11.5 -28t-28.5 -11q-16 0 -27.5 11t-11.5 28q0 8 1 16zM307 317h-13q-23 0 -38.5 14.5t-15.5 35.5t15.5 35.5t38.5 14.5h13q22 0 37.5 -14.5t15.5 -35.5t-15.5 -35.5t-37.5 -14.5z" />
<glyph unicode="&#xa2;" d="M280 496v107q0 27 21 27q20 0 20 -27v-106q63 0 104 -36q5 17 20 17q21 0 21 -25v-61q0 -28 -20 -28q-17 0 -20 23q-5 32 -36 51.5t-79 19.5q-68 0 -112.5 -41.5t-44.5 -105.5q0 -63 43.5 -104.5t109.5 -41.5q74 0 125 42q10 8 18 8q19 0 19 -20t-49 -43t-99 -25v-113 q0 -27 -20 -27q-21 0 -21 27v113q-73 8 -120 60.5t-47 123.5q0 98 81 152q33 22 86 33z" />
<glyph unicode="&#xa3;" d="M182 41h252q19 0 31.5 13.5t13.5 37.5q3 23 21 23q20 0 20 -22q0 -38 -24.5 -65.5t-59.5 -27.5h-323q-27 0 -27 21q0 19 22 19q35 2 62.5 56.5t27.5 123.5q0 27 -4 53h-104q-27 0 -27 21q0 20 27 20h94q-27 85 -27 121q0 59 41.5 101t99.5 42q54 0 98 -39q31 -28 31 -44 q0 -7 -6.5 -13t-13.5 -6q-9 0 -18 12q-40 49 -90 49q-41 0 -71 -30.5t-30 -71.5q0 -28 23 -107l4 -14h99q27 0 27 -21q0 -20 -27 -20h-90q5 -35 5 -57q0 -104 -57 -175z" />
<glyph unicode="&#xa4;" d="M199 162l-57 -56q-10 -11 -18 -11q-9 0 -15 6t-6 14q0 9 11 20l56 56q-35 47 -35 101q0 59 34 102l-55 56q-11 10 -11 19q0 8 6 14t14 6t19 -11l56 -55q44 35 102 35q57 0 102 -35l55 55q11 11 20 11q8 0 14 -6t6 -15q0 -8 -10 -18l-55 -56q34 -47 34 -101 q0 -58 -35 -102l55 -56q10 -10 10 -20q0 -8 -6 -14t-14 -6q-9 0 -19 11l-56 56q-47 -35 -101 -35q-55 0 -101 35zM300 417q-51 0 -87.5 -36.5t-36.5 -87.5q0 -52 36.5 -88.5t87.5 -36.5q50 0 87 36.5t37 86.5q0 53 -36 89.5t-88 36.5z" />
<glyph unicode="&#xa5;" d="M321 238v-60h131q21 0 21 -18q0 -19 -21 -19h-131v-100h86q27 0 27 -20q0 -21 -27 -21h-213q-27 0 -27 21q0 20 27 20h86v100h-130q-22 0 -22 19q0 18 22 18h130v60h-130q-22 0 -22 19q0 18 22 18h116l-164 247h-24q-27 0 -27 21q0 20 27 20h110q27 0 27 -20 q0 -21 -27 -21h-39l151 -227l151 227h-39q-27 0 -27 21q0 20 27 20h110q27 0 27 -20q0 -21 -27 -21h-24l-164 -247h118q21 0 21 -18q0 -19 -21 -19h-131z" />
<glyph unicode="&#xa6;" d="M320 577v-267q0 -27 -20 -27t-20 27v267q0 27 20 27t20 -27zM320 170v-267q0 -27 -20 -27t-20 27v267q0 27 20 27t20 -27z" />
<glyph unicode="&#xa7;" d="M496 603v-109q0 -24 -20 -24q-21 0 -21 24v69h-168q-37 0 -64 -22.5t-27 -53.5q0 -28 30 -54t119 -75l56 -31q70 -38 101.5 -71.5t31.5 -70.5q0 -39 -36 -64q-23 -15 -66 -20q13 -22 13 -49q0 -49 -38 -81.5t-95 -32.5h-207v111q0 24 21 24q20 0 20 -24v-71h165 q40 0 66.5 21.5t26.5 53.5q0 26 -29.5 54t-101.5 68l-65 36q-142 80 -142 147q0 34 28 56.5t75 26.5q-13 22 -13 46q0 47 38 81.5t90 34.5h212zM384 290l-64 36q-84 46 -119 77q-6 -1 -18 -1q-32 0 -53 -13t-21 -32q0 -43 125 -114l62 -35q80 -45 104 -69q4 2 18 3 q34 1 53.5 12t19.5 30q0 22 -29 51t-78 55z" />
<glyph unicode="&#xa8;" d="M190 611q21 0 35.5 -15t14.5 -36q0 -20 -15 -34.5t-35 -14.5t-35 15t-15 35t15 35t35 15zM411 611q21 0 35.5 -15t14.5 -36q0 -20 -15 -34.5t-35 -14.5t-35 15t-15 35t15 35t35 15z" />
<glyph unicode="&#xa9;" d="M153 260v45q0 60 41 102.5t98 42.5q43 0 89 -29q0 22 18 22t18 -20v-65q0 -20 -18 -20q-15 0 -18 19q-2 23 -28 40t-60 17q-43 0 -73.5 -32.5t-30.5 -79.5v-39q0 -47 33.5 -81.5t79.5 -34.5q50 0 90 47q7 8 16 8q7 0 12 -5t5 -12q0 -13 -23 -33q-44 -41 -100 -41 q-59 0 -104 45t-45 104zM300 578q122 0 209 -87t87 -209q0 -125 -87 -211t-213 -86q-120 0 -206.5 87.5t-86.5 209.5t87 209t210 87zM300 537q-106 0 -181 -74.5t-75 -180.5q0 -105 74.5 -180.5t177.5 -75.5q109 0 184 74.5t75 181.5q0 105 -75 180t-180 75z" />
<glyph unicode="&#xaa;" d="M361 282v26q-54 -29 -107 -29q-44 0 -71.5 22t-27.5 57q0 43 37.5 70t95.5 27q28 0 73 -9v44q0 21 -18 34t-47 13q-28 0 -76 -19q-8 -4 -14 -4q-7 0 -12 5.5t-5 13.5q0 12 14 19q55 22 95 22q44 0 72 -23.5t28 -60.5v-171h26q23 0 23 -19q0 -18 -23 -18h-63zM361 350v59 q-29 11 -71 11q-43 0 -70.5 -18t-27.5 -46q0 -18 17 -29t45 -11q55 0 107 34z" />
<glyph unicode="&#xab;" d="M63 209l208 197q11 11 21 11q8 0 14 -6t6 -14t-11 -20l-143 -168l143 -169q11 -12 11 -20t-6 -14t-14 -6t-21 11zM292 209l208 197q11 11 21 11q8 0 14 -6t6 -14t-11 -20l-143 -168l143 -169q11 -12 11 -20t-6 -14t-14 -6t-21 11z" />
<glyph unicode="&#xac;" d="M487 397h-388q-27 0 -27 21q0 20 27 20h429v-243q0 -27 -21 -27q-20 0 -20 27v202z" />
<glyph unicode="&#xad;" d="M501 258h-402q-27 0 -27 21q0 20 27 20h402q27 0 27 -20q0 -21 -27 -21z" />
<glyph unicode="&#xae;" d="M233 258v-102h36q20 0 20 -18t-20 -18h-96q-21 0 -21 18t21 18h24v251h-24q-21 0 -21 18t21 18h138q46 0 75.5 -26t29.5 -67q0 -28 -19 -50t-51 -31q25 -19 39.5 -39t45.5 -74h15q20 0 20 -18t-20 -18h-39q-57 119 -111 138h-63zM233 294h56q42 0 66.5 15.5t24.5 42.5 q0 24 -19.5 39.5t-50.5 15.5h-77v-113zM300 578q122 0 209 -87t87 -209q0 -125 -87 -211t-213 -86q-120 0 -206.5 87.5t-86.5 209.5t87 209t210 87zM300 537q-106 0 -181 -74.5t-75 -180.5q0 -105 74.5 -180.5t177.5 -75.5q109 0 184 74.5t75 181.5q0 105 -75 180t-180 75z " />
<glyph unicode="&#xaf;" d="M418 536h-236q-27 0 -27 20t27 20h236q27 0 27 -20t-27 -20z" />
<glyph unicode="&#xb0;" d="M300 636q60 0 102.5 -42.5t42.5 -102.5t-42.5 -102.5t-102.5 -42.5q-61 0 -103 42.5t-42 104.5q0 58 43 100.5t102 42.5zM300 595q-43 0 -73.5 -30.5t-30.5 -72.5q0 -44 30.5 -74.5t73.5 -30.5t73.5 30.5t30.5 73.5t-30.5 73.5t-73.5 30.5z" />
<glyph unicode="&#xb1;" d="M320 301v-162q0 -27 -20 -27q-21 0 -21 27v162h-180q-27 0 -27 20t27 20h180v161q0 27 21 27q20 0 20 -27v-161h180q28 0 28 -20t-28 -20h-180zM99 40h402q27 0 27 -20t-27 -20h-402q-27 0 -27 20t27 20z" />
<glyph unicode="&#xb2;" d="M219 295h150v3q0 20 18 20t18 -20v-39h-230v43l132 123q38 38 49 54t11 32q0 26 -21.5 45.5t-50.5 19.5q-26 0 -46.5 -14.5t-27.5 -37.5q-4 -16 -18 -16q-7 0 -12 5t-5 12q0 19 19 43q35 44 90 44q43 0 75.5 -30t32.5 -71q0 -32 -29.5 -66.5t-154.5 -149.5z" />
<glyph unicode="&#xb3;" d="M358 446q58 -36 58 -88q0 -44 -35.5 -75.5t-85.5 -31.5q-37 0 -75.5 18t-38.5 35q0 7 5 12t12 5t13 -5q41 -29 84 -29q34 0 59.5 21t25.5 50q0 30 -26 51t-66 22q-21 2 -21 18q0 10 9 16q3 2 28 2q28 0 46 15t18 38q0 24 -19.5 40t-48.5 16q-45 0 -69 -27q-7 -10 -16 -10 q-7 0 -12.5 5t-5.5 12q0 19 34.5 37.5t68.5 18.5q44 0 74 -26.5t30 -65.5q0 -43 -46 -74z" />
<glyph unicode="&#xb4;" d="M433 599l-114 -100q-12 -9 -19 -9q-8 0 -14 6t-6 15q0 8 12 19l114 100q12 9 19 9q8 0 14 -6t6 -15q0 -8 -12 -19z" />
<glyph unicode="&#xb5;" d="M165 16v-189q0 -27 -21 -27q-20 0 -20 27v550h-54q-27 0 -27 20t27 20h95v-302q0 -41 25.5 -66t65.5 -25q101 0 183 91v262h-74q-28 0 -28 20t28 20h115v-377h34q27 0 27 -20t-27 -20h-75v59q-80 -75 -181 -75q-57 0 -93 32z" />
<glyph unicode="&#xb6;" d="M437 563v-584h62q26 0 26 -20q0 -21 -26 -21h-98q-25 0 -25 21q0 18 21 20v584h-72v-584q21 -2 21 -20q0 -21 -25 -21h-134q-26 0 -26 21q0 20 26 20h97v281q-65 4 -111 24q-43 19 -68.5 52t-25.5 70v47q0 67 60.5 109t158.5 42h200q25 0 25 -20q0 -21 -25 -21h-61z M284 307v251q-58 -6 -96.5 -36.5t-38.5 -70.5v-37q0 -40 38.5 -70.5t96.5 -36.5z" />
<glyph unicode="&#xb7;" d="M295 348h10q29 0 49 -18.5t20 -46.5t-20 -47t-49 -19h-10q-29 0 -49 19t-20 47t20 46.5t49 18.5z" />
<glyph unicode="&#xb8;" d="M274 0h38v-47q65 -2 65 -61q0 -29 -22 -47t-57 -18q-36 0 -70 18q-18 9 -18 22q0 8 6 13.5t14 5.5q5 0 15 -5q29 -16 51 -16q19 0 31.5 8t12.5 21q0 25 -46 25h-20v81z" />
<glyph unicode="&#xb9;" d="M319 612v-317h71q20 0 20 -18t-20 -18h-178q-21 0 -21 18q0 19 31 19q39 0 61 -1v268l-65 -21q-8 -2 -9 -2q-6 0 -11.5 5.5t-5.5 12.5q0 11 16 18t111 36z" />
<glyph unicode="&#xba;" d="M301 577q62 0 104.5 -43t42.5 -105q0 -59 -43.5 -102t-103.5 -43q-61 0 -104 43t-43 104q0 60 43 103t104 43zM301 540q-46 0 -78 -32t-32 -77q0 -46 32.5 -78t77.5 -32t77.5 32t32.5 76q0 47 -32 79t-78 32z" />
<glyph unicode="&#xbb;" d="M311 208l-207 -197q-11 -11 -21 -11q-8 0 -14 6t-6 14t11 20l142 168l-142 169q-11 12 -11 20t6 14t14 6t21 -11zM541 208l-207 -197q-11 -11 -21 -11q-8 0 -14 6t-6 14t11 20l142 168l-142 169q-11 12 -11 20t6 14t14 6t21 -11z" />
<glyph unicode="&#xbc;" d="M144 612v-317h71q21 0 21 -18t-21 -18h-178q-21 0 -21 18q0 19 31 19q39 0 61 -1v268l-65 -21q-8 -2 -9 -2q-6 0 -11.5 5.5t-5.5 12.5q0 11 16 18t111 36zM492 477l-351 -414q-10 -12 -18 -12t-14 6t-6 14q0 7 9 17l350 414q11 12 18 12q8 0 14 -6t6 -14q0 -5 -8 -17z M510 93h-149v34l128 218h57v-216h13q21 0 21 -18t-25 -18h-9v-57h13q21 0 21 -18t-21 -18h-85q-21 0 -21 18q0 12 11 17q5 1 46 1v57zM510 129v180h-2l-107 -180h109z" />
<glyph unicode="&#xbd;" d="M387 36h150v3q0 20 18 20t18 -20v-39h-230v43l132 123q38 38 49 54t11 32q0 26 -21.5 45.5t-50.5 19.5q-26 0 -46.5 -14.5t-27.5 -37.5q-4 -16 -18 -16q-7 0 -12 5t-5 12q0 19 19 43q35 44 90 44q43 0 75.5 -30t32.5 -71q0 -32 -29.5 -66.5t-154.5 -149.5zM151 612v-317 h71q20 0 20 -18t-20 -18h-178q-21 0 -21 18q0 19 31 19q39 0 61 -1v268l-65 -21q-8 -2 -9 -2q-6 0 -11.5 5.5t-5.5 12.5q0 11 16 18t111 36zM485 477l-351 -414q-10 -12 -18 -12t-14 6t-6 14q0 7 9 17l350 414q11 12 18 12q8 0 14 -6t6 -14q0 -5 -8 -17z" />
<glyph unicode="&#xbe;" d="M183 446q58 -36 58 -88q0 -44 -35.5 -75.5t-85.5 -31.5q-37 0 -75.5 18t-38.5 35q0 7 5 12t12 5t13 -5q41 -29 84 -29q34 0 59.5 21t25.5 50q0 30 -26 51t-66 22q-21 2 -21 18q0 10 9 16q3 2 28 2q28 0 46 15t18 38q0 24 -19.5 40t-48.5 16q-45 0 -69 -27q-7 -10 -16 -10 q-7 0 -12.5 5t-5.5 12q0 19 34.5 37.5t68.5 18.5q44 0 74 -26.5t30 -65.5q0 -43 -46 -74zM491 477l-351 -414q-10 -12 -18 -12t-14 6t-6 14q0 7 9 17l350 414q11 12 18 12q8 0 14 -6t6 -14q0 -5 -8 -17zM510 93h-149v34l128 218h57v-216h13q21 0 21 -18t-25 -18h-9v-57h13 q21 0 21 -18t-21 -18h-85q-21 0 -21 18q0 12 11 17q5 1 46 1v57zM510 129v180h-2l-107 -180h109z" />
<glyph unicode="&#xbf;" d="M278 155v41q0 27 20 27q21 0 21 -27v-68q-87 -36 -126 -71t-39 -78q0 -50 40 -81.5t102 -31.5q60 0 129 34v41q0 27 20 27q21 0 21 -27v-67q-6 -3 -16 -7.5t-13 -5.5q-81 -36 -146 -36q-80 0 -129 42.5t-49 111.5q0 56 35.5 94t129.5 82zM313 317h-27q-25 0 -41 14 t-16 36t16 36t41 14h27q26 0 41.5 -14t15.5 -36t-15.5 -36t-41.5 -14z" />
<glyph unicode="&#xc0;" d="M204 780l114 -100l7 -8q5 -5 5 -11q0 -9 -6 -15t-15 -6q-7 0 -18 9l-114 100q-12 11 -12 20q0 8 6 14t14 6q7 0 19 -9zM428 188h-266l-54 -147h79q27 0 27 -20q0 -21 -27 -21h-151q-27 0 -27 21q0 20 27 20h31l179 481h-120q-27 0 -27 21q0 20 27 20h204l197 -522h37 q27 0 27 -20q0 -21 -27 -21h-156q-27 0 -27 21q0 20 27 20h76zM413 229l-112 293h-15l-108 -293h235z" />
<glyph unicode="&#xc1;" d="M371 749l-114 -100q-12 -9 -19 -9q-8 0 -14 6t-6 15q0 8 12 19l114 100q12 9 19 9q8 0 14 -6t6 -15q0 -8 -12 -19zM428 188h-266l-54 -147h79q27 0 27 -20q0 -21 -27 -21h-151q-27 0 -27 21q0 20 27 20h31l179 481h-120q-27 0 -27 21q0 20 27 20h204l197 -522h37 q27 0 27 -20q0 -21 -27 -21h-156q-27 0 -27 21q0 20 27 20h76zM413 229l-112 293h-15l-108 -293h235z" />
<glyph unicode="&#xc2;" d="M428 188h-266l-54 -147h79q27 0 27 -20q0 -21 -27 -21h-151q-27 0 -27 21q0 20 27 20h31l179 481h-120q-27 0 -27 21q0 20 27 20h204l197 -522h37q27 0 27 -20q0 -21 -27 -21h-156q-27 0 -27 21q0 20 27 20h76zM413 229l-112 293h-15l-108 -293h235zM273 789l132 -108 q13 -11 13 -21q0 -8 -6 -14t-14 -6q-7 0 -18 8l-107 88l-107 -88q-11 -8 -18 -8q-8 0 -14 6t-6 14q0 11 13 20z" />
<glyph unicode="&#xc3;" d="M428 188h-266l-54 -147h79q27 0 27 -20q0 -21 -27 -21h-151q-27 0 -27 21q0 20 27 20h31l179 481h-120q-27 0 -27 21q0 20 27 20h204l197 -522h37q27 0 27 -20q0 -21 -27 -21h-156q-27 0 -27 21q0 20 27 20h76zM413 229l-112 293h-15l-108 -293h235zM408 753q8 0 14 -6 t6 -14q0 -10 -22 -31q-36 -36 -69 -36q-29 0 -81 31q-26 17 -43 17q-15 0 -25.5 -7t-32.5 -30q-6 -8 -17 -8q-8 0 -14 5.5t-6 13.5q0 11 19 30q40 37 75 37q25 0 64 -23q45 -25 59 -25q13 0 23.5 7.5t33.5 30.5q8 8 16 8z" />
<glyph unicode="&#xc4;" d="M162 761q21 0 35.5 -15t14.5 -36q0 -20 -15 -34.5t-35 -14.5t-35 15t-15 35t15 35t35 15zM383 761q21 0 35.5 -15t14.5 -36q0 -20 -15 -34.5t-35 -14.5t-35 15t-15 35t15 35t35 15zM428 188h-266l-54 -147h79q27 0 27 -20q0 -21 -27 -21h-151q-27 0 -27 21q0 20 27 20h31 l179 481h-120q-27 0 -27 21q0 20 27 20h204l197 -522h37q27 0 27 -20q0 -21 -27 -21h-156q-27 0 -27 21q0 20 27 20h76zM413 229l-112 293h-15l-108 -293h235z" />
<glyph unicode="&#xc5;" d="M428 188h-266l-54 -147h79q27 0 27 -20q0 -21 -27 -21h-151q-27 0 -27 21q0 20 27 20h31l179 481h-120q-27 0 -27 21q0 20 27 20h204l197 -522h37q27 0 27 -20q0 -21 -27 -21h-156q-27 0 -27 21q0 20 27 20h76zM413 229l-112 293h-15l-108 -293h235zM277 811 q39 0 66 -26.5t27 -65.5q0 -36 -27.5 -62.5t-65.5 -26.5t-65.5 27t-27.5 64t27.5 63.5t65.5 26.5zM277 778q-25 0 -42.5 -17t-17.5 -40q0 -24 17.5 -41t42.5 -17t42.5 17t17.5 40q0 24 -17.5 41t-42.5 17z" />
<glyph unicode="&#xc6;" d="M297 189h-141l-41 -148h26q27 0 27 -20q0 -21 -27 -21h-104q-27 0 -27 21q0 20 27 20h37l133 481h-63q-27 0 -27 21q0 20 27 20h426v-152q0 -27 -21 -27q-20 0 -20 27v111h-191v-208h78v28q0 27 20 27t20 -27v-96q0 -27 -20 -27t-20 27v27h-78v-232h211v93q0 26 20 26 q21 0 21 -26v-134h-345q-27 0 -27 21q0 20 27 20h52v148zM297 230v292h-50l-80 -292h130z" />
<glyph unicode="&#xc7;" d="M317 -16v-31q65 -2 65 -61q0 -29 -22 -47t-57 -18q-36 0 -70 18q-18 9 -18 22q0 8 6 13.5t14 5.5q5 0 15 -5q31 -16 51 -16q19 0 31.5 8t12.5 21q0 25 -46 25h-20v69q-62 15 -96 40q-55 38 -87.5 95.5t-32.5 118.5v83q0 46 19.5 94.5t51.5 82.5q69 74 171 74 q101 0 173 -69v29q0 27 21 27q20 0 20 -27v-112q0 -27 -21 -27q-18 0 -20 24q-3 46 -54.5 80t-118.5 34q-83 0 -142 -63.5t-59 -152.5v-71q0 -90 65 -156.5t153 -66.5q52 0 93 21t81 69q9 10 18 10q20 0 20 -19q0 -16 -38 -51q-35 -32 -80 -51.5t-86 -19.5h-13z" />
<glyph unicode="&#xc8;" d="M165 272v-231h314v119q0 27 21 27q20 0 20 -27v-160h-450q-27 0 -27 21q0 20 27 20h54v481h-54q-27 0 -27 21q0 20 27 20h429v-139q0 -27 -21 -27q-20 0 -20 27v98h-293v-209h145v45q0 27 21 27q20 0 20 -27v-131q0 -27 -20 -27q-21 0 -21 27v45h-145zM215 780l114 -100 l7 -8q5 -5 5 -11q0 -9 -6 -15t-15 -6q-8 0 -18 9l-114 100q-12 11 -12 20q0 8 6 14t14 6q7 0 19 -9z" />
<glyph unicode="&#xc9;" d="M389 749l-114 -100q-12 -9 -19 -9q-8 0 -14 6t-6 15q0 8 12 19l114 100q12 9 19 9q8 0 14 -6t6 -15q0 -8 -12 -19zM165 272v-231h314v119q0 27 21 27q20 0 20 -27v-160h-450q-27 0 -27 21q0 20 27 20h54v481h-54q-27 0 -27 21q0 20 27 20h429v-139q0 -27 -21 -27 q-20 0 -20 27v98h-293v-209h145v45q0 27 21 27q20 0 20 -27v-131q0 -27 -20 -27q-21 0 -21 27v45h-145z" />
<glyph unicode="&#xca;" d="M165 272v-231h314v119q0 27 21 27q20 0 20 -27v-160h-450q-27 0 -27 21q0 20 27 20h54v481h-54q-27 0 -27 21q0 20 27 20h429v-139q0 -27 -21 -27q-20 0 -20 27v98h-293v-209h145v45q0 27 21 27q20 0 20 -27v-131q0 -27 -20 -27q-21 0 -21 27v45h-145zM291 789l132 -108 q13 -11 13 -21q0 -8 -6 -14t-14 -6q-7 0 -18 8l-107 88l-107 -88q-11 -8 -18 -8q-8 0 -14 6t-6 14q0 11 13 20z" />
<glyph unicode="&#xcb;" d="M181 761q21 0 35.5 -15t14.5 -36q0 -20 -15 -34.5t-35 -14.5t-35 15t-15 35t15 35t35 15zM402 761q21 0 35.5 -15t14.5 -36q0 -20 -15 -34.5t-35 -14.5t-35 15t-15 35t15 35t35 15zM165 272v-231h314v119q0 27 21 27q20 0 20 -27v-160h-450q-27 0 -27 21q0 20 27 20h54 v481h-54q-27 0 -27 21q0 20 27 20h429v-139q0 -27 -21 -27q-20 0 -20 27v98h-293v-209h145v45q0 27 21 27q20 0 20 -27v-131q0 -27 -20 -27q-21 0 -21 27v45h-145z" />
<glyph unicode="&#xcc;" d="M230 780l114 -100l7 -8q5 -5 5 -11q0 -9 -6 -15t-15 -6q-7 0 -18 9l-114 100q-12 11 -12 20q0 8 6 14t14 6q7 0 19 -9zM320 522v-481h139q28 0 28 -20q0 -21 -28 -21h-319q-27 0 -27 21q0 20 27 20h139v481h-139q-27 0 -27 21q0 20 27 20h319q28 0 28 -20q0 -21 -28 -21 h-139z" />
<glyph unicode="&#xcd;" d="M433 749l-114 -100q-12 -9 -19 -9q-8 0 -14 6t-6 15q0 8 12 19l114 100q12 9 19 9q8 0 14 -6t6 -15q0 -8 -12 -19zM320 522v-481h139q28 0 28 -20q0 -21 -28 -21h-319q-27 0 -27 21q0 20 27 20h139v481h-139q-27 0 -27 21q0 20 27 20h319q28 0 28 -20q0 -21 -28 -21h-139 z" />
<glyph unicode="&#xce;" d="M320 522v-481h139q28 0 28 -20q0 -21 -28 -21h-319q-27 0 -27 21q0 20 27 20h139v481h-139q-27 0 -27 21q0 20 27 20h319q28 0 28 -20q0 -21 -28 -21h-139zM300 789l132 -108q13 -11 13 -21q0 -8 -6 -14t-14 -6q-7 0 -18 8l-107 88l-107 -88q-11 -8 -18 -8q-8 0 -14 6 t-6 14q0 11 13 20z" />
<glyph unicode="&#xcf;" d="M320 522v-481h139q28 0 28 -20q0 -21 -28 -21h-319q-27 0 -27 21q0 20 27 20h139v481h-139q-27 0 -27 21q0 20 27 20h319q28 0 28 -20q0 -21 -28 -21h-139zM189 761q21 0 35.5 -15t14.5 -36q0 -20 -15 -34.5t-35 -14.5t-35 15t-15 35t15 35t35 15zM411 761q21 0 35.5 -15 t14.5 -36q0 -20 -15 -34.5t-35 -14.5t-35 15t-15 35t15 35t35 15z" />
<glyph unicode="&#xd0;" d="M104 272h-77q-27 0 -27 21q0 20 27 20h77v209h-34q-27 0 -27 21q0 20 27 20h220q94 0 162 -74.5t68 -178.5v-56q0 -104 -68 -179t-162 -75h-220q-27 0 -27 21q0 20 27 20h34v231zM145 522v-209h162q27 0 27 -20q0 -21 -27 -21h-162v-231h150q71 0 127.5 62.5t56.5 141.5 v74q0 39 -17.5 80.5t-47.5 72.5q-50 50 -126 50h-143z" />
<glyph unicode="&#xd1;" d="M501 0h-52l-305 504v-463h75q27 0 27 -20q0 -21 -27 -21h-150q-27 0 -27 21q0 20 27 20h34v481h-54q-27 0 -27 21q0 20 27 20h106l305 -504v463h-74q-28 0 -28 21q0 20 28 20h149q27 0 27 -20q0 -21 -27 -21h-34v-522zM433 753q8 0 14 -6t6 -14q0 -10 -22 -31 q-36 -36 -69 -36q-29 0 -81 31q-26 17 -43 17q-15 0 -25.5 -7t-32.5 -30q-6 -8 -17 -8q-8 0 -14 5.5t-6 13.5q0 11 19 30q40 37 75 37q25 0 64 -23q45 -25 59 -25q13 0 23.5 7.5t33.5 30.5q8 8 16 8z" />
<glyph unicode="&#xd2;" d="M224 780l114 -100l7 -8q5 -5 5 -11q0 -9 -6 -15t-15 -6q-7 0 -18 9l-114 100q-12 11 -12 20q0 8 6 14t14 6q7 0 19 -9zM300 576q106 0 177.5 -86.5t71.5 -213.5q0 -121 -73 -206.5t-176 -85.5q-104 0 -176.5 86t-72.5 210t72.5 210t176.5 86zM300 535q-86 0 -147 -75 t-61 -180t61 -180t147 -75q85 0 146.5 74.5t61.5 177.5q0 108 -60.5 183t-147.5 75z" />
<glyph unicode="&#xd3;" d="M404 749l-114 -100q-12 -9 -19 -9q-8 0 -14 6t-6 15q0 8 12 19l114 100q12 9 19 9q8 0 14 -6t6 -15q0 -8 -12 -19zM300 576q106 0 177.5 -86.5t71.5 -213.5q0 -121 -73 -206.5t-176 -85.5q-104 0 -176.5 86t-72.5 210t72.5 210t176.5 86zM300 535q-86 0 -147 -75 t-61 -180t61 -180t147 -75q85 0 146.5 74.5t61.5 177.5q0 108 -60.5 183t-147.5 75z" />
<glyph unicode="&#xd4;" d="M300 576q106 0 177.5 -86.5t71.5 -213.5q0 -121 -73 -206.5t-176 -85.5q-104 0 -176.5 86t-72.5 210t72.5 210t176.5 86zM300 535q-86 0 -147 -75t-61 -180t61 -180t147 -75q85 0 146.5 74.5t61.5 177.5q0 108 -60.5 183t-147.5 75zM300 789l132 -108q13 -11 13 -21 q0 -8 -6 -14t-14 -6q-7 0 -18 8l-107 88l-107 -88q-11 -8 -18 -8q-8 0 -14 6t-6 14q0 11 13 20z" />
<glyph unicode="&#xd5;" d="M300 576q106 0 177.5 -86.5t71.5 -213.5q0 -121 -73 -206.5t-176 -85.5q-104 0 -176.5 86t-72.5 210t72.5 210t176.5 86zM300 535q-86 0 -147 -75t-61 -180t61 -180t147 -75q85 0 146.5 74.5t61.5 177.5q0 108 -60.5 183t-147.5 75zM441 753q8 0 14 -6t6 -14 q0 -10 -22 -31q-36 -36 -69 -36q-29 0 -81 31q-26 17 -43 17q-15 0 -25.5 -7t-32.5 -30q-6 -8 -17 -8q-8 0 -14 5.5t-6 13.5q0 11 19 30q40 37 75 37q25 0 64 -23q45 -25 59 -25q13 0 23.5 7.5t33.5 30.5q8 8 16 8z" />
<glyph unicode="&#xd6;" d="M189 761q21 0 35.5 -15t14.5 -36q0 -20 -15 -34.5t-35 -14.5t-35 15t-15 35t15 35t35 15zM410 761q21 0 35.5 -15t14.5 -36q0 -20 -15 -34.5t-35 -14.5t-35 15t-15 35t15 35t35 15zM300 576q106 0 177.5 -86.5t71.5 -213.5q0 -121 -73 -206.5t-176 -85.5 q-104 0 -176.5 86t-72.5 210t72.5 210t176.5 86zM300 535q-86 0 -147 -75t-61 -180t61 -180t147 -75q85 0 146.5 74.5t61.5 177.5q0 108 -60.5 183t-147.5 75z" />
<glyph unicode="&#xd7;" d="M300 311l142 142q11 11 19 11t14.5 -6t6.5 -15q0 -8 -11 -19l-142 -142l142 -143q11 -10 11 -19q0 -8 -6 -14t-15 -6t-19 10l-142 143l-142 -143q-11 -10 -19 -10q-9 0 -15 6t-6 14q0 9 10 19l143 143l-143 142q-10 11 -10 19q0 9 6 15t15 6q7 0 18 -11z" />
<glyph unicode="&#xd8;" d="M141 51l-65 -82q-9 -12 -18 -12q-8 0 -13 5.5t-5 12.5q0 6 8 16l69 87q-66 88 -66 202q0 124 72.5 210t176.5 86q86 0 158 -66l66 83q9 12 18 12q8 0 13 -5.5t5 -12.5q0 -5 -8 -16l-70 -88q67 -83 67 -203q0 -124 -72.5 -210t-176.5 -86q-90 0 -159 67zM144 112l288 364 q-59 59 -132 59q-86 0 -147 -75t-61 -180q0 -91 52 -168zM456 449l-289 -365q59 -59 133 -59q86 0 147 75t61 180q0 94 -52 169z" />
<glyph unicode="&#xd9;" d="M499 522v-337q0 -85 -57.5 -143t-141.5 -58q-85 0 -142 57.5t-57 143.5v337h-34q-27 0 -27 21q0 20 27 20h149q27 0 27 -20q0 -21 -27 -21h-74v-337q0 -68 45.5 -114t112.5 -46q66 0 112 46.5t46 113.5v337h-74q-27 0 -27 21q0 20 27 20h149q27 0 27 -20q0 -21 -27 -21 h-34zM227 780l114 -100l7 -8q5 -5 5 -11q0 -9 -6 -15t-15 -6q-8 0 -18 9l-114 100q-12 11 -12 20q0 8 6 14t14 6q7 0 19 -9z" />
<glyph unicode="&#xda;" d="M401 749l-114 -100q-12 -9 -19 -9q-8 0 -14 6t-6 15q0 8 12 19l114 100q12 9 19 9q8 0 14 -6t6 -15q0 -8 -12 -19zM499 522v-337q0 -85 -57.5 -143t-141.5 -58q-85 0 -142 57.5t-57 143.5v337h-34q-27 0 -27 21q0 20 27 20h149q27 0 27 -20q0 -21 -27 -21h-74v-337 q0 -68 45.5 -114t112.5 -46q66 0 112 46.5t46 113.5v337h-74q-27 0 -27 21q0 20 27 20h149q27 0 27 -20q0 -21 -27 -21h-34z" />
<glyph unicode="&#xdb;" d="M499 522v-337q0 -85 -57.5 -143t-141.5 -58q-85 0 -142 57.5t-57 143.5v337h-34q-27 0 -27 21q0 20 27 20h149q27 0 27 -20q0 -21 -27 -21h-74v-337q0 -68 45.5 -114t112.5 -46q66 0 112 46.5t46 113.5v337h-74q-27 0 -27 21q0 20 27 20h149q27 0 27 -20q0 -21 -27 -21 h-34zM300 789l132 -108q13 -11 13 -21q0 -8 -6 -14t-14 -6q-7 0 -18 8l-107 88l-107 -88q-11 -8 -18 -8q-8 0 -14 6t-6 14q0 11 13 20z" />
<glyph unicode="&#xdc;" d="M189 761q21 0 35.5 -15t14.5 -36q0 -20 -15 -34.5t-35 -14.5t-35 15t-15 35t15 35t35 15zM410 761q21 0 35.5 -15t14.5 -36q0 -20 -15 -34.5t-35 -14.5t-35 15t-15 35t15 35t35 15zM499 522v-337q0 -85 -57.5 -143t-141.5 -58q-85 0 -142 57.5t-57 143.5v337h-34 q-27 0 -27 21q0 20 27 20h149q27 0 27 -20q0 -21 -27 -21h-74v-337q0 -68 45.5 -114t112.5 -46q66 0 112 46.5t46 113.5v337h-74q-27 0 -27 21q0 20 27 20h149q27 0 27 -20q0 -21 -27 -21h-34z" />
<glyph unicode="&#xdd;" d="M401 749l-114 -100q-12 -9 -19 -9q-8 0 -14 6t-6 15q0 8 12 19l114 100q12 9 19 9q8 0 14 -6t6 -15q0 -8 -12 -19zM322 254v-213h105q27 0 27 -20q0 -21 -27 -21h-251q-27 0 -27 21q0 20 27 20h105v213l-179 268h-24q-27 0 -27 21q0 20 27 20h111q27 0 27 -20 q0 -21 -27 -21h-38l152 -227l149 227h-40q-28 0 -28 21q0 20 28 20h110q27 0 27 -20q0 -21 -27 -21h-24z" />
<glyph unicode="&#xde;" d="M165 131v-90h138q28 0 28 -20q0 -21 -28 -21h-233q-27 0 -27 21q0 20 27 20h54v481h-54q-27 0 -27 21q0 20 27 20h233q28 0 28 -20q0 -21 -28 -21h-138v-59h145q80 0 134.5 -47.5t54.5 -117.5t-59 -118.5t-144 -48.5h-131zM165 172h134q65 0 112 37t47 89 q0 51 -42.5 87.5t-101.5 36.5h-149v-250z" />
<glyph unicode="&#xdf;" d="M124 41v435q0 53 41.5 90.5t100.5 37.5q61 0 103.5 -42.5t42.5 -103.5q0 -60 -58 -99q145 -59 145 -198q0 -76 -38.5 -126.5t-95.5 -50.5q-45 0 -75.5 33.5t-30.5 83.5q0 23 20 23q19 0 21 -24q2 -35 19.5 -55t45.5 -20q39 0 66 39.5t27 97.5q0 78 -61 128 q-54 44 -118 44h-5q-27 0 -27 21q0 20 23 20h5q38 0 67 25.5t29 58.5q0 43 -31 73.5t-74 30.5q-42 0 -71.5 -25t-29.5 -62v-435h15q27 0 27 -20q0 -21 -27 -21h-110q-27 0 -27 21q0 20 27 20h54z" />
<glyph unicode="&#xe0;" d="M419 0v67q-89 -83 -191 -83q-70 0 -113 35.5t-43 92.5q0 65 58.5 105.5t152.5 40.5q59 0 136 -21v71q0 37 -34 59.5t-89 22.5q-45 0 -142 -30q-8 -2 -10 -2q-8 0 -13.5 6t-5.5 14q0 15 17 21q93 32 157 32q70 0 115.5 -35t45.5 -88v-267h54q27 0 27 -20q0 -21 -27 -21 h-95zM419 112v90q-60 15 -128 15q-79 0 -128.5 -29.5t-49.5 -76.5q0 -39 31 -62.5t83 -23.5q53 0 97.5 20t94.5 67zM213 630l114 -100l7 -8q5 -5 5 -11q0 -9 -6 -15t-15 -6q-8 0 -18 9l-114 100q-12 11 -12 20q0 8 6 14t14 6q7 0 19 -9z" />
<glyph unicode="&#xe1;" d="M387 599l-114 -100q-12 -9 -19 -9q-8 0 -14 6t-6 15q0 8 12 19l114 100q12 9 19 9q8 0 14 -6t6 -15q0 -8 -12 -19zM419 0v67q-89 -83 -191 -83q-70 0 -113 35.5t-43 92.5q0 65 58.5 105.5t152.5 40.5q59 0 136 -21v71q0 37 -34 59.5t-89 22.5q-45 0 -142 -30 q-8 -2 -10 -2q-8 0 -13.5 6t-5.5 14q0 15 17 21q93 32 157 32q70 0 115.5 -35t45.5 -88v-267h54q27 0 27 -20q0 -21 -27 -21h-95zM419 112v90q-60 15 -128 15q-79 0 -128.5 -29.5t-49.5 -76.5q0 -39 31 -62.5t83 -23.5q53 0 97.5 20t94.5 67z" />
<glyph unicode="&#xe2;" d="M419 0v67q-89 -83 -191 -83q-70 0 -113 35.5t-43 92.5q0 65 58.5 105.5t152.5 40.5q59 0 136 -21v71q0 37 -34 59.5t-89 22.5q-45 0 -142 -30q-8 -2 -10 -2q-8 0 -13.5 6t-5.5 14q0 15 17 21q93 32 157 32q70 0 115.5 -35t45.5 -88v-267h54q27 0 27 -20q0 -21 -27 -21 h-95zM419 112v90q-60 15 -128 15q-79 0 -128.5 -29.5t-49.5 -76.5q0 -39 31 -62.5t83 -23.5q53 0 97.5 20t94.5 67zM290 639l132 -108q13 -11 13 -21q0 -8 -6 -14t-14 -6q-7 0 -18 8l-107 88l-107 -88q-11 -8 -18 -8q-8 0 -14 6t-6 14q0 11 13 20z" />
<glyph unicode="&#xe3;" d="M419 0v67q-89 -83 -191 -83q-70 0 -113 35.5t-43 92.5q0 65 58.5 105.5t152.5 40.5q59 0 136 -21v71q0 37 -34 59.5t-89 22.5q-45 0 -142 -30q-8 -2 -10 -2q-8 0 -13.5 6t-5.5 14q0 15 17 21q93 32 157 32q70 0 115.5 -35t45.5 -88v-267h54q27 0 27 -20q0 -21 -27 -21 h-95zM419 112v90q-60 15 -128 15q-79 0 -128.5 -29.5t-49.5 -76.5q0 -39 31 -62.5t83 -23.5q53 0 97.5 20t94.5 67zM425 603q8 0 14 -6t6 -14q0 -10 -22 -31q-36 -36 -69 -36q-29 0 -81 31q-26 17 -43 17q-15 0 -25.5 -7t-32.5 -30q-6 -8 -17 -8q-8 0 -14 5.5t-6 13.5 q0 11 19 30q40 37 75 37q25 0 64 -23q45 -25 59 -25q13 0 23.5 7.5t33.5 30.5q8 8 16 8z" />
<glyph unicode="&#xe4;" d="M179 611q21 0 35.5 -15t14.5 -36q0 -20 -15 -34.5t-35 -14.5t-35 15t-15 35t15 35t35 15zM400 611q21 0 35.5 -15t14.5 -36q0 -20 -15 -34.5t-35 -14.5t-35 15t-15 35t15 35t35 15zM419 0v67q-89 -83 -191 -83q-70 0 -113 35.5t-43 92.5q0 65 58.5 105.5t152.5 40.5 q59 0 136 -21v71q0 37 -34 59.5t-89 22.5q-45 0 -142 -30q-8 -2 -10 -2q-8 0 -13.5 6t-5.5 14q0 15 17 21q93 32 157 32q70 0 115.5 -35t45.5 -88v-267h54q27 0 27 -20q0 -21 -27 -21h-95zM419 112v90q-60 15 -128 15q-79 0 -128.5 -29.5t-49.5 -76.5q0 -39 31 -62.5 t83 -23.5q53 0 97.5 20t94.5 67z" />
<glyph unicode="&#xe5;" d="M419 0v67q-89 -83 -191 -83q-70 0 -113 35.5t-43 92.5q0 65 58.5 105.5t152.5 40.5q59 0 136 -21v71q0 37 -34 59.5t-89 22.5q-45 0 -142 -30q-8 -2 -10 -2q-8 0 -13.5 6t-5.5 14q0 15 17 21q93 32 157 32q70 0 115.5 -35t45.5 -88v-267h54q27 0 27 -20q0 -21 -27 -21 h-95zM419 112v90q-60 15 -128 15q-79 0 -128.5 -29.5t-49.5 -76.5q0 -39 31 -62.5t83 -23.5q53 0 97.5 20t94.5 67zM290 661q39 0 66 -26.5t27 -65.5q0 -36 -27.5 -62.5t-65.5 -26.5t-65.5 27t-27.5 64t27.5 63.5t65.5 26.5zM290 628q-25 0 -42.5 -17t-17.5 -40 q0 -24 17.5 -41t42.5 -17t42.5 17t17.5 40q0 24 -17.5 41t-42.5 17z" />
<glyph unicode="&#xe6;" d="M430 431q73 0 109 -62.5t38 -169.5h-258q5 -76 41 -125t86 -49q22 0 42.5 12t56.5 45q7 5 13 5q8 0 14 -6t6 -14q0 -12 -31 -38q-60 -45 -103 -45q-74 0 -124 77v-34q0 -27 -20 -27t-20 27v25q-56 -68 -120 -68t-106 42t-42 106q0 49 45 85q23 17 62 28.5t76 11.5 q41 0 85 -12v60q0 35 -25.5 60t-62.5 25q-45 0 -84 -25q-12 -7 -18 -7q-7 0 -13 6.5t-6 13.5q0 16 29 28q56 25 99 25q37 0 68 -23t45 -61q18 39 50 61.5t68 22.5zM280 110v93q-44 13 -79 13q-32 0 -69 -12t-54 -28q-21 -21 -21 -55q0 -42 29.5 -69t75.5 -27q51 0 118 85z M320 240h215q-8 65 -23 95q-27 55 -83 55q-89 0 -109 -150z" />
<glyph unicode="&#xe7;" d="M315 -16v-31q65 -2 65 -61q0 -29 -22 -47t-57 -18q-36 0 -70 18q-18 9 -18 21q0 8 6 14t14 6q5 0 15 -5q31 -16 51 -16q19 0 31.5 8t12.5 21q0 25 -45 25h-21v67q-64 9 -105 39q-88 64 -88 179q0 99 65 163t165 64q93 0 156 -55v13q0 28 21 28q20 0 20 -28v-91 q0 -27 -20 -27t-21 24q-4 40 -50 67.5t-109 27.5q-83 0 -134.5 -51.5t-51.5 -133.5q0 -79 52 -129.5t134 -50.5q109 0 187 72q10 10 18 10t13.5 -5.5t5.5 -13.5q0 -13 -21.5 -32.5t-54.5 -36.5q-60 -31 -144 -35z" />
<glyph unicode="&#xe8;" d="M520 199h-416q11 -79 66 -126.5t136 -47.5q47 0 96 15t79 39q10 7 16 7q8 0 13.5 -6t5.5 -14q0 -26 -71.5 -54t-139.5 -28q-101 0 -171.5 68t-70.5 165q0 91 66 152.5t162 61.5q72 0 128.5 -36t83.5 -98q17 -40 17 -98zM104 240h374q-12 68 -63 109t-124 41t-123 -40.5 t-64 -109.5zM228 630l114 -100l7 -8q5 -5 5 -11q0 -9 -6 -15t-15 -6q-7 0 -18 9l-114 100q-12 11 -12 20q0 8 6 14t14 6q7 0 19 -9z" />
<glyph unicode="&#xe9;" d="M402 599l-114 -100q-12 -9 -19 -9q-8 0 -14 6t-6 15q0 8 12 19l114 100q12 9 19 9q8 0 14 -6t6 -15q0 -8 -12 -19zM520 199h-416q11 -79 66 -126.5t136 -47.5q47 0 96 15t79 39q10 7 16 7q8 0 13.5 -6t5.5 -14q0 -26 -71.5 -54t-139.5 -28q-101 0 -171.5 68t-70.5 165 q0 91 66 152.5t162 61.5q72 0 128.5 -36t83.5 -98q17 -40 17 -98zM104 240h374q-12 68 -63 109t-124 41t-123 -40.5t-64 -109.5z" />
<glyph unicode="&#xea;" d="M520 199h-416q11 -79 66 -126.5t136 -47.5q47 0 96 15t79 39q10 7 16 7q8 0 13.5 -6t5.5 -14q0 -26 -71.5 -54t-139.5 -28q-101 0 -171.5 68t-70.5 165q0 91 66 152.5t162 61.5q72 0 128.5 -36t83.5 -98q17 -40 17 -98zM104 240h374q-12 68 -63 109t-124 41t-123 -40.5 t-64 -109.5zM305 639l132 -108q13 -11 13 -21q0 -8 -6 -14t-14 -6q-7 0 -18 8l-107 88l-107 -88q-11 -8 -18 -8q-8 0 -14 6t-6 14q0 11 13 20z" />
<glyph unicode="&#xeb;" d="M194 611q21 0 35.5 -15t14.5 -36q0 -20 -15 -34.5t-35 -14.5t-35 15t-15 35t15 35t35 15zM415 611q21 0 35.5 -15t14.5 -36q0 -20 -15 -34.5t-35 -14.5t-35 15t-15 35t15 35t35 15zM520 199h-416q11 -79 66 -126.5t136 -47.5q47 0 96 15t79 39q10 7 16 7q8 0 13.5 -6 t5.5 -14q0 -26 -71.5 -54t-139.5 -28q-101 0 -171.5 68t-70.5 165q0 91 66 152.5t162 61.5q72 0 128.5 -36t83.5 -98q17 -40 17 -98zM104 240h374q-12 68 -63 109t-124 41t-123 -40.5t-64 -109.5z" />
<glyph unicode="&#xec;" d="M320 417v-376h160q28 0 28 -20q0 -21 -28 -21h-361q-27 0 -27 21q0 20 27 20h160v335h-118q-27 0 -27 21q0 20 27 20h159zM217 630l114 -100l7 -8q5 -5 5 -11q0 -9 -6 -15t-15 -6q-8 0 -18 9l-114 100q-12 11 -12 20q0 8 6 14t14 6q7 0 19 -9z" />
<glyph unicode="&#xed;" d="M391 599l-114 -100q-12 -9 -19 -9q-8 0 -14 6t-6 15q0 8 12 19l114 100q12 9 19 9q8 0 14 -6t6 -15q0 -8 -12 -19zM320 417v-376h160q28 0 28 -20q0 -21 -28 -21h-361q-27 0 -27 21q0 20 27 20h160v335h-118q-27 0 -27 21q0 20 27 20h159z" />
<glyph unicode="&#xee;" d="M320 417v-376h160q28 0 28 -20q0 -21 -28 -21h-361q-27 0 -27 21q0 20 27 20h160v335h-118q-27 0 -27 21q0 20 27 20h159zM283 639l132 -108q13 -11 13 -21q0 -8 -6 -14t-14 -6q-7 0 -18 8l-107 88l-107 -88q-11 -8 -18 -8q-8 0 -14 6t-6 14q0 11 13 20z" />
<glyph unicode="&#xef;" d="M320 417v-376h160q28 0 28 -20q0 -21 -28 -21h-361q-27 0 -27 21q0 20 27 20h160v335h-118q-27 0 -27 21q0 20 27 20h159zM176 611q21 0 35.5 -15t14.5 -36q0 -20 -15 -34.5t-35 -14.5t-35 15t-15 35t15 35t35 15zM398 611q21 0 35.5 -15t14.5 -36q0 -20 -15 -34.5 t-35 -14.5t-35 15t-15 35t15 35t35 15z" />
<glyph unicode="&#xf0;" d="M440 577l-75 -34q75 -64 119 -151.5t44 -170.5q0 -107 -66 -173q-67 -65 -162 -65t-161.5 65t-66.5 159q0 92 66 157.5t160 65.5q41 0 73 -12t73 -41q-53 99 -121 148l-91 -42q-2 -1 -7 -1q-8 0 -14 7t-6 16q0 13 9 16l63 28q-52 22 -98 31q-20 4 -20 18q0 10 6 16t15 6 q47 0 148 -48l95 42l7 1q8 0 13.5 -6t5.5 -15q0 -13 -9 -17zM301 390q-78 0 -132.5 -53t-54.5 -129t54.5 -129.5t132.5 -53.5q77 0 132 53t55 127q0 79 -54 132t-133 53z" />
<glyph unicode="&#xf1;" d="M167 417v-69q43 48 76 65.5t80 17.5q67 0 112 -39t45 -97v-254h34q27 0 27 -20q0 -21 -27 -21h-109q-27 0 -27 21q0 20 27 20h34v247q0 44 -38 76q-31 26 -82 26q-55 0 -95 -33q-18 -13 -57 -63v-253h45q27 0 27 -20q0 -21 -27 -21h-131q-28 0 -28 21q0 20 28 20h45v335 h-34q-27 0 -27 21q0 20 27 20h75zM425 603q8 0 14 -6t6 -14q0 -10 -22 -31q-36 -36 -69 -36q-29 0 -81 31q-26 17 -43 17q-15 0 -25.5 -7t-32.5 -30q-6 -8 -17 -8q-8 0 -14 5.5t-6 13.5q0 11 19 30q40 37 75 37q25 0 64 -23q45 -25 59 -25q13 0 23.5 7.5t33.5 30.5q8 8 16 8 z" />
<glyph unicode="&#xf2;" d="M300 431q96 0 162 -65.5t66 -160.5q0 -92 -67 -156.5t-161 -64.5q-95 0 -161.5 65t-66.5 159q0 92 66.5 157.5t161.5 65.5zM300 390q-78 0 -132.5 -53t-54.5 -129t54.5 -129.5t132.5 -53.5q77 0 132 53t55 127q0 79 -54 132t-133 53zM230 630l114 -100l7 -8q5 -5 5 -11 q0 -9 -6 -15t-15 -6q-7 0 -18 9l-114 100q-12 11 -12 20q0 8 6 14t14 6q7 0 19 -9z" />
<glyph unicode="&#xf3;" d="M398 599l-114 -100q-12 -9 -19 -9q-8 0 -14 6t-6 15q0 8 12 19l114 100q12 9 19 9q8 0 14 -6t6 -15q0 -8 -12 -19zM300 431q96 0 162 -65.5t66 -160.5q0 -92 -67 -156.5t-161 -64.5q-95 0 -161.5 65t-66.5 159q0 92 66.5 157.5t161.5 65.5zM300 390q-78 0 -132.5 -53 t-54.5 -129t54.5 -129.5t132.5 -53.5q77 0 132 53t55 127q0 79 -54 132t-133 53z" />
<glyph unicode="&#xf4;" d="M300 431q96 0 162 -65.5t66 -160.5q0 -92 -67 -156.5t-161 -64.5q-95 0 -161.5 65t-66.5 159q0 92 66.5 157.5t161.5 65.5zM300 390q-78 0 -132.5 -53t-54.5 -129t54.5 -129.5t132.5 -53.5q77 0 132 53t55 127q0 79 -54 132t-133 53zM300 639l132 -108q13 -11 13 -21 q0 -8 -6 -14t-14 -6q-7 0 -18 8l-107 88l-107 -88q-11 -8 -18 -8q-8 0 -14 6t-6 14q0 11 13 20z" />
<glyph unicode="&#xf5;" d="M300 431q96 0 162 -65.5t66 -160.5q0 -92 -67 -156.5t-161 -64.5q-95 0 -161.5 65t-66.5 159q0 92 66.5 157.5t161.5 65.5zM300 390q-78 0 -132.5 -53t-54.5 -129t54.5 -129.5t132.5 -53.5q77 0 132 53t55 127q0 79 -54 132t-133 53zM441 603q8 0 14 -6t6 -14 q0 -10 -22 -31q-36 -36 -69 -36q-29 0 -81 31q-26 17 -43 17q-15 0 -25.5 -7t-32.5 -30q-6 -8 -17 -8q-8 0 -14 5.5t-6 13.5q0 11 19 30q40 37 75 37q25 0 64 -23q45 -25 59 -25q13 0 23.5 7.5t33.5 30.5q8 8 16 8z" />
<glyph unicode="&#xf6;" d="M189 611q21 0 35.5 -15t14.5 -36q0 -20 -15 -34.5t-35 -14.5t-35 15t-15 35t15 35t35 15zM410 611q21 0 35.5 -15t14.5 -36q0 -20 -15 -34.5t-35 -14.5t-35 15t-15 35t15 35t35 15zM300 431q96 0 162 -65.5t66 -160.5q0 -92 -67 -156.5t-161 -64.5q-95 0 -161.5 65 t-66.5 159q0 92 66.5 157.5t161.5 65.5zM300 390q-78 0 -132.5 -53t-54.5 -129t54.5 -129.5t132.5 -53.5q77 0 132 53t55 127q0 79 -54 132t-133 53z" />
<glyph unicode="&#xf7;" d="M501 262h-402q-27 0 -27 20t27 20h402q27 0 27 -20t-27 -20zM300 124q21 0 35.5 -14.5t14.5 -35.5q0 -20 -15 -34.5t-35 -14.5t-34.5 14.5t-14.5 35.5q0 20 14.5 34.5t34.5 14.5zM300 540q21 0 35.5 -14.5t14.5 -35.5q0 -20 -15 -34.5t-35 -14.5t-34.5 14.5t-14.5 35.5 q0 20 14.5 34.5t34.5 14.5z" />
<glyph unicode="&#xf8;" d="M154 35l-66 -68q-10 -10 -17 -10t-12.5 5.5t-5.5 12.5t10 17l66 67q-57 66 -57 149q0 93 66.5 158t161.5 65q82 0 144 -49l64 66q11 10 18 10t12 -5.5t5 -12.5t-10 -17l-64 -65q59 -65 59 -151q0 -93 -66.5 -158t-161.5 -65q-80 0 -146 51zM441 329l-258 -264 q51 -40 117 -40q78 0 132.5 53t54.5 129q0 68 -46 122zM158 89l257 263q-50 38 -115 38q-78 0 -132.5 -53t-54.5 -129q0 -68 45 -119z" />
<glyph unicode="&#xf9;" d="M439 0v66q-84 -82 -182 -82q-60 0 -96.5 36t-36.5 95v261h-54q-27 0 -27 21q0 20 27 20h95v-302q0 -38 26.5 -64t64.5 -26q100 0 183 90v261h-74q-28 0 -28 21q0 20 28 20h115v-376h34q27 0 27 -20q0 -21 -27 -21h-75zM222 630l114 -100l7 -8q5 -5 5 -11q0 -9 -6 -15 t-15 -6q-7 0 -18 9l-114 100q-12 11 -12 20q0 8 6 14t14 6q7 0 19 -9z" />
<glyph unicode="&#xfa;" d="M383 599l-114 -100q-12 -9 -19 -9q-8 0 -14 6t-6 15q0 8 12 19l114 100q12 9 19 9q8 0 14 -6t6 -15q0 -8 -12 -19zM439 0v66q-84 -82 -182 -82q-60 0 -96.5 36t-36.5 95v261h-54q-27 0 -27 21q0 20 27 20h95v-302q0 -38 26.5 -64t64.5 -26q100 0 183 90v261h-74 q-28 0 -28 21q0 20 28 20h115v-376h34q27 0 27 -20q0 -21 -27 -21h-75z" />
<glyph unicode="&#xfb;" d="M439 0v66q-84 -82 -182 -82q-60 0 -96.5 36t-36.5 95v261h-54q-27 0 -27 21q0 20 27 20h95v-302q0 -38 26.5 -64t64.5 -26q100 0 183 90v261h-74q-28 0 -28 21q0 20 28 20h115v-376h34q27 0 27 -20q0 -21 -27 -21h-75zM292 639l132 -108q13 -11 13 -21q0 -8 -6 -14 t-14 -6q-7 0 -18 8l-107 88l-107 -88q-11 -8 -18 -8q-8 0 -14 6t-6 14q0 11 13 20z" />
<glyph unicode="&#xfc;" d="M181 611q21 0 35.5 -15t14.5 -36q0 -20 -15 -34.5t-35 -14.5t-35 15t-15 35t15 35t35 15zM402 611q21 0 35.5 -15t14.5 -36q0 -20 -15 -34.5t-35 -14.5t-35 15t-15 35t15 35t35 15zM439 0v66q-84 -82 -182 -82q-60 0 -96.5 36t-36.5 95v261h-54q-27 0 -27 21q0 20 27 20 h95v-302q0 -38 26.5 -64t64.5 -26q100 0 183 90v261h-74q-28 0 -28 21q0 20 28 20h115v-376h34q27 0 27 -20q0 -21 -27 -21h-75z" />
<glyph unicode="&#xfd;" d="M433 599l-114 -100q-12 -9 -19 -9q-8 0 -14 6t-6 15q0 8 12 19l114 100q12 9 19 9q8 0 14 -6t6 -15q0 -8 -12 -19zM282 0l-188 376h-16q-27 0 -27 21q0 20 27 20h115q27 0 27 -20q0 -21 -27 -21h-52l164 -331l161 331h-54q-27 0 -27 21q0 20 27 20h110q27 0 27 -20 q0 -21 -27 -21h-14l-256 -521h65q27 0 27 -20q0 -21 -27 -21h-233q-27 0 -27 21q0 20 27 20h127z" />
<glyph unicode="&#xfe;" d="M144 590v-255q40 52 81 74t98 22q93 0 155.5 -60.5t62.5 -149.5t-63 -150t-155 -61q-112 0 -179 96v-251h98q27 0 27 -20q0 -21 -27 -21h-193q-27 0 -27 21q0 20 27 20h54v694h-54q-27 0 -27 21q0 20 27 20h95zM322 390q-74 0 -126 -49.5t-52 -119.5q0 -71 52 -120.5 t126 -49.5t126 49t52 119q0 73 -51 122t-127 49z" />
<glyph unicode="&#xff;" d="M189 611q21 0 35.5 -15t14.5 -36q0 -20 -15 -34.5t-35 -14.5t-35 15t-15 35t15 35t35 15zM410 611q21 0 35.5 -15t14.5 -36q0 -20 -15 -34.5t-35 -14.5t-35 15t-15 35t15 35t35 15zM282 0l-188 376h-16q-27 0 -27 21q0 20 27 20h115q27 0 27 -20q0 -21 -27 -21h-52 l164 -331l161 331h-54q-27 0 -27 21q0 20 27 20h110q27 0 27 -20q0 -21 -27 -21h-14l-256 -521h65q27 0 27 -20q0 -21 -27 -21h-233q-27 0 -27 21q0 20 27 20h127z" />
<glyph unicode="&#x152;" horiz-adv-x="1200" d="M765 272v-231h314v119q0 27 21 27q20 0 20 -27v-160h-450q-27 0 -27 21q0 20 27 20h54v481h-54q-27 0 -27 21q0 20 27 20h429v-139q0 -27 -21 -27q-20 0 -20 27v98h-293v-209h145v45q0 27 21 27q20 0 20 -27v-131q0 -27 -20 -27q-21 0 -21 27v45h-145zM300 576 q106 0 177.5 -86.5t71.5 -213.5q0 -121 -73 -206.5t-176 -85.5q-104 0 -176.5 86t-72.5 210t72.5 210t176.5 86zM300 535q-86 0 -147 -75t-61 -180t61 -180t147 -75q85 0 146.5 74.5t61.5 177.5q0 108 -60.5 183t-147.5 75z" />
<glyph unicode="&#x153;" horiz-adv-x="1200" d="M1120 199h-416q11 -79 66 -126.5t136 -47.5q47 0 96 15t79 39q10 7 16 7q8 0 13.5 -6t5.5 -14q0 -26 -71.5 -54t-139.5 -28q-101 0 -171.5 68t-70.5 165q0 91 66 152.5t162 61.5q72 0 128.5 -36t83.5 -98q17 -40 17 -98zM704 240h374q-12 68 -63 109t-124 41t-123 -40.5 t-64 -109.5zM300 431q96 0 162 -65.5t66 -160.5q0 -92 -67 -156.5t-161 -64.5q-95 0 -161.5 65t-66.5 159q0 92 66.5 157.5t161.5 65.5zM300 390q-78 0 -132.5 -53t-54.5 -129t54.5 -129.5t132.5 -53.5q77 0 132 53t55 127q0 79 -54 132t-133 53z" />
<glyph unicode="&#x178;" d="M190 736q21 0 35.5 -15t14.5 -36q0 -20 -15 -34.5t-35 -14.5t-35 15t-15 35t15 35t35 15zM411 736q21 0 35.5 -15t14.5 -36q0 -20 -15 -34.5t-35 -14.5t-35 15t-15 35t15 35t35 15zM322 254v-213h105q27 0 27 -20q0 -21 -27 -21h-251q-27 0 -27 21q0 20 27 20h105v213 l-179 268h-24q-27 0 -27 21q0 20 27 20h111q27 0 27 -20q0 -21 -27 -21h-38l152 -227l149 227h-40q-28 0 -28 21q0 20 28 20h110q27 0 27 -20q0 -21 -27 -21h-24z" />
<glyph unicode="&#x2c6;" d="M300 615l178 -223q9 -10 9 -18t-6 -14t-14 -6q-11 0 -20 13l-147 185l-147 -185q-9 -13 -20 -13q-8 0 -14 6t-6 14t9 18z" />
<glyph unicode="&#x2dc;" d="M188 178q8 0 14 -5.5t6 -13.5q0 -11 -25 -40q-49 -59 -94 -59q-24 0 -46.5 12.5t-69.5 52.5q-37 30 -61 30q-19 0 -33.5 -11.5t-47.5 -53.5q-9 -12 -20 -12q-7 0 -13 6t-6 13q0 13 28 45q47 54 92 54q24 0 42 -9t59 -42q54 -44 73 -44q36 0 73 52q17 25 29 25z" />
<glyph unicode="&#x2000;" horiz-adv-x="405" />
<glyph unicode="&#x2001;" horiz-adv-x="811" />
<glyph unicode="&#x2002;" horiz-adv-x="405" />
<glyph unicode="&#x2003;" horiz-adv-x="811" />
<glyph unicode="&#x2004;" horiz-adv-x="270" />
<glyph unicode="&#x2005;" horiz-adv-x="202" />
<glyph unicode="&#x2006;" horiz-adv-x="135" />
<glyph unicode="&#x2007;" horiz-adv-x="135" />
<glyph unicode="&#x2008;" horiz-adv-x="101" />
<glyph unicode="&#x2009;" horiz-adv-x="162" />
<glyph unicode="&#x200a;" horiz-adv-x="45" />
<glyph unicode="&#x2010;" d="M501 258h-402q-27 0 -27 21q0 20 27 20h402q27 0 27 -20q0 -21 -27 -21z" />
<glyph unicode="&#x2011;" d="M501 258h-402q-27 0 -27 21q0 20 27 20h402q27 0 27 -20q0 -21 -27 -21z" />
<glyph unicode="&#x2013;" d="M501 261h-402q-27 0 -27 21q0 20 27 20h402q27 0 27 -20q0 -21 -27 -21z" />
<glyph unicode="&#x2014;" d="M572 261h-544q-27 0 -27 21q0 20 27 20h544q27 0 27 -20q0 -21 -27 -21z" />
<glyph unicode="&#x2018;" d="M393 604l70 -225q2 -6 2 -10q0 -11 -8.5 -18.5t-20.5 -7.5q-18 0 -31 22l-145 239h133z" />
<glyph unicode="&#x2019;" d="M207 604h133l-145 -265q-13 -25 -31 -25q-12 0 -20.5 8.5t-8.5 20.5q0 3 2 11z" />
<glyph unicode="&#x201c;" d="M435 604l70 -225q2 -6 2 -10q0 -11 -8.5 -18.5t-20.5 -7.5q-19 0 -31 22l-137 239h125zM218 604l70 -225q2 -6 2 -10q0 -11 -8.5 -18.5t-20.5 -7.5q-19 0 -31 22l-137 239h125z" />
<glyph unicode="&#x201d;" d="M165 604h125l-137 -239q-12 -22 -31 -22q-12 0 -20.5 7.5t-8.5 18.5q0 4 2 10zM382 604h125l-137 -239q-12 -22 -31 -22q-12 0 -20.5 7.5t-8.5 18.5q0 4 2 10z" />
<glyph unicode="&#x2022;" d="M302 337q39 0 67.5 -29t28.5 -69q0 -41 -29 -69.5t-69 -28.5q-41 0 -69.5 29t-28.5 70t29 69t71 28z" />
<glyph unicode="&#x2026;" d="M100 84q21 0 35.5 -14.5t14.5 -35.5q0 -20 -14.5 -34.5t-34.5 -14.5q-21 0 -35.5 14.5t-14.5 34.5q0 21 14.5 35.5t34.5 14.5zM299 84q21 0 35.5 -14.5t14.5 -35.5q0 -20 -15 -34.5t-35 -14.5t-34.5 14.5t-14.5 34.5t14.5 35t34.5 15zM500 84q20 0 34.5 -14.5t14.5 -35.5 q0 -20 -14.5 -34.5t-34.5 -14.5q-21 0 -35.5 14.5t-14.5 35.5q0 20 15 34.5t35 14.5z" />
<glyph unicode="&#x202f;" horiz-adv-x="162" />
<glyph unicode="&#x2039;" d="M72 281l418 232q8 5 12 5q7 0 13.5 -7t6.5 -15q0 -11 -13 -18l-355 -197l355 -197q13 -7 13 -17q0 -5 -3 -10l-2 -3q-5 -10 -15 -10q-5 0 -13 5z" />
<glyph unicode="&#x203a;" d="M528 281l-418 -232q-8 -5 -12 -5q-8 0 -14 7t-6 16q0 10 13 17l355 197l-355 197q-13 7 -13 18q0 4 3 9l2 3q5 10 15 10q5 0 13 -5z" />
<glyph unicode="&#x205f;" horiz-adv-x="202" />
<glyph unicode="&#x2122;" horiz-adv-x="1200" d="M926 169h-46l-159 353h-8v-481h74q28 0 28 -20q0 -21 -28 -21h-149q-27 0 -27 21q0 20 27 20h34v481h-25q-27 0 -27 21q0 20 27 20h99l157 -348l154 348h100q27 0 27 -20q0 -21 -27 -21h-25v-481h34q27 0 27 -20q0 -21 -27 -21h-149q-27 0 -27 21q0 20 27 20h74v481h-8z M321 41h105q27 0 27 -20q0 -21 -27 -21h-251q-27 0 -27 21q0 20 27 20h105v481h-167v-73q0 -27 -21 -27q-20 0 -20 27v114h456v-114q0 -27 -20 -27q-9 0 -15 7.5t-6 19.5v73h-166v-481z" />
</font>
</defs>
</svg>
